<svg xmlns="http://www.w3.org/2000/svg" width="1993" height="1353" viewBox="0 0 1993 1353">
<rect width="1993" height="1353" fill="#ffffff"/>
<g transform="translate(0.000000,1353.000000) scale(0.100000,-0.100000)"
fill="#000000" stroke="none">
<path d="M11528 12833 c-10 -11 -19 -49 -23 -98 -4 -44 -9 -83 -11 -87 -4 -7
-23 -96 -29 -135 -3 -24 -85 -133 -145 -191 -22 -22 -40 -45 -40 -50 0 -15
-150 -161 -194 -190 -23 -15 -69 -54 -104 -87 -35 -33 -69 -63 -77 -68 -8 -4
-15 -13 -15 -18 0 -11 -25 -39 -35 -39 -11 0 -32 -25 -64 -75 -42 -66 -315
-345 -338 -345 -5 0 -14 -5 -21 -12 -6 -6 -21 -13 -33 -15 -78 -12 -130 -135
-124 -295 2 -54 8 -76 32 -115 19 -30 37 -48 49 -48 28 0 29 38 3 74 -38 52
-34 211 8 294 8 16 32 36 54 46 22 10 56 31 77 47 71 56 288 276 322 327 19
29 64 79 99 112 36 33 93 86 126 118 34 31 67 57 73 57 13 0 212 199 212 212
0 4 26 35 58 68 165 171 162 168 147 180 -17 14 -12 66 12 134 7 21 13 58 13
82 0 23 3 45 8 48 4 2 27 -13 51 -33 38 -33 44 -43 43 -74 -1 -28 3 -37 20
-43 19 -6 20 -11 15 -84 -3 -49 -12 -90 -23 -109 -15 -25 -15 -32 -5 -45 21
-25 36 -19 58 22 26 46 39 162 25 216 -8 27 -8 45 0 62 13 28 36 32 45 7 4
-10 18 -36 33 -58 15 -22 48 -80 74 -130 55 -103 72 -125 97 -125 10 0 38 -9
61 -19 96 -43 178 -71 273 -95 55 -14 125 -34 155 -45 30 -11 89 -27 130 -36
41 -10 108 -33 148 -51 41 -19 80 -34 88 -34 8 0 14 -3 14 -8 0 -8 7 -11 260
-137 96 -47 199 -104 228 -126 29 -21 56 -39 60 -39 4 0 20 -12 37 -26 33 -28
138 -94 151 -94 4 0 15 -7 24 -15 16 -14 111 -69 180 -103 19 -9 43 -24 52
-32 9 -8 34 -24 55 -35 21 -11 64 -35 96 -53 32 -19 71 -38 85 -42 15 -5 52
-18 82 -30 30 -12 72 -26 94 -31 21 -5 50 -16 65 -23 33 -17 216 -52 371 -71
64 -7 162 -27 219 -44 105 -31 213 -54 336 -70 39 -6 97 -15 130 -21 88 -16
356 -11 390 8 46 25 98 35 225 42 142 8 172 12 285 34 39 8 95 17 125 21 82
10 220 36 249 47 14 5 56 12 93 15 37 2 95 11 130 19 619 137 767 137 1203 -3
130 -41 225 -83 301 -132 39 -25 91 -58 115 -73 24 -16 73 -50 109 -78 36 -28
85 -65 108 -83 30 -22 54 -53 78 -100 19 -37 34 -73 34 -80 0 -7 7 -25 16 -42
35 -66 47 -105 64 -220 7 -44 13 -87 15 -96 11 -57 26 -334 21 -388 -4 -36
-11 -111 -16 -166 -5 -55 -14 -115 -19 -133 -5 -18 -13 -56 -16 -85 -4 -28
-16 -108 -28 -177 -28 -165 -26 -275 8 -405 15 -55 29 -113 32 -130 3 -16 12
-48 21 -70 21 -52 203 -410 231 -455 59 -94 110 -219 116 -282 16 -205 17
-289 1 -428 -15 -132 -15 -221 -1 -320 3 -19 7 -62 10 -95 3 -33 10 -73 15
-90 5 -16 12 -46 15 -65 27 -192 25 -306 -6 -415 -11 -38 -23 -78 -25 -87 -3
-10 -23 -37 -44 -60 -42 -45 -57 -90 -45 -135 10 -42 7 -221 -5 -243 -6 -11
-16 -20 -23 -20 -17 0 -121 51 -125 62 -2 4 -9 8 -15 8 -15 0 -137 113 -137
127 0 6 7 17 17 24 28 23 121 249 136 329 4 19 9 46 12 60 8 38 8 184 1 208
-8 23 -43 239 -51 311 -3 23 -10 52 -16 62 -5 11 -7 24 -4 29 3 5 -13 67 -36
137 -23 70 -43 134 -44 143 -1 8 -4 22 -8 30 -3 8 -13 35 -21 60 -9 25 -27 77
-42 115 -14 39 -28 80 -31 92 -3 12 -11 28 -19 34 -8 6 -14 16 -14 21 0 6 -35
51 -78 102 -42 50 -96 116 -118 146 -23 30 -62 78 -88 105 -26 28 -58 61 -71
75 -29 32 -70 98 -108 175 -16 33 -39 74 -52 90 -12 17 -37 57 -55 90 -74 136
-170 239 -305 329 -127 84 -178 114 -206 121 -15 4 -56 41 -100 92 -117 135
-181 201 -219 226 -57 36 -103 62 -140 77 -48 19 -148 64 -247 111 -45 21 -88
39 -95 39 -7 0 -35 11 -63 25 -59 29 -81 31 -89 9 -10 -26 4 -34 199 -109 39
-15 108 -46 154 -70 l84 -42 -44 -25 c-24 -14 -91 -49 -149 -78 -58 -28 -109
-55 -115 -60 -29 -22 -190 -101 -227 -111 -24 -6 -61 -20 -83 -30 -49 -24
-197 -75 -290 -100 -38 -10 -104 -28 -145 -39 -127 -36 -350 -79 -435 -85 -33
-3 -89 -10 -125 -15 -36 -6 -78 -13 -95 -16 -16 -2 -111 -11 -210 -19 -324
-26 -489 -44 -585 -65 -148 -33 -263 -59 -287 -66 -21 -6 -23 -3 -23 32 -1 84
-9 240 -14 261 -12 55 -67 133 -93 133 -19 0 -16 -28 8 -66 27 -44 50 -187 47
-296 -1 -48 1 -90 4 -93 3 -3 -18 -29 -47 -58 -60 -59 -70 -87 -86 -225 -5
-48 -12 -94 -14 -102 -3 -9 -7 -49 -10 -90 -2 -41 -9 -127 -15 -190 -7 -63
-14 -191 -16 -285 -3 -93 -9 -197 -13 -229 -5 -33 -7 -94 -6 -135 2 -78 0
-104 -34 -321 -14 -90 -19 -180 -20 -324 0 -211 -7 -320 -22 -348 -5 -9 -43
-50 -84 -91 -85 -85 -115 -142 -115 -219 0 -44 -2 -49 -17 -43 -18 7 -199 55
-208 55 -2 0 11 34 30 76 19 42 35 81 35 87 0 5 11 33 24 61 61 130 80 239 71
421 -4 83 -2 189 5 260 19 193 19 216 4 300 -8 44 -19 143 -24 220 -26 363
-40 465 -71 545 -16 41 -22 83 -25 170 -2 75 -10 138 -23 182 -10 36 -17 69
-14 72 3 3 1 12 -6 20 -15 17 -34 171 -32 253 1 53 -2 64 -22 80 -13 10 -41
43 -64 73 -22 30 -52 66 -67 79 -14 14 -26 29 -26 33 0 5 -16 26 -36 46 -61
63 -191 360 -259 592 -7 25 -33 86 -58 135 -25 50 -57 126 -73 170 -15 44 -38
96 -50 116 -13 20 -33 58 -45 83 -11 25 -25 46 -30 46 -5 0 -9 5 -9 10 0 13
-35 64 -69 100 -13 14 -43 54 -67 90 -24 36 -50 74 -58 85 -7 11 -31 47 -52
80 -38 59 -69 100 -151 196 -24 27 -43 54 -43 59 0 16 -141 154 -185 182 -22
14 -48 35 -59 46 -10 12 -31 24 -47 27 -16 4 -31 10 -34 15 -9 15 -130 68
-172 75 -24 4 -43 10 -43 14 0 4 14 20 30 36 17 16 30 34 30 41 0 6 7 17 15
24 18 15 55 92 55 114 0 19 -48 32 -69 19 -10 -6 -16 -25 -17 -49 -1 -49 -50
-123 -107 -163 -58 -39 -163 -87 -217 -99 -25 -5 -106 -24 -180 -41 -74 -18
-201 -42 -282 -56 -144 -23 -176 -34 -228 -81 -30 -27 -169 -89 -228 -102 -37
-9 -41 -8 -32 7 5 9 21 27 36 41 14 13 33 35 42 48 13 20 13 25 1 37 -17 17
-26 12 -63 -40 -16 -22 -37 -48 -47 -57 -10 -10 -22 -25 -26 -33 -8 -13 -19
-14 -81 -5 -39 5 -77 11 -84 12 -7 2 -13 -6 -13 -16 0 -20 4 -22 100 -37 111
-18 242 4 344 57 14 8 29 14 33 14 4 0 20 12 35 26 44 41 92 60 183 74 222 33
488 96 609 145 66 27 98 35 120 30 16 -3 47 -8 69 -10 22 -2 69 -20 104 -40
36 -19 72 -35 82 -35 9 0 35 -17 59 -38 23 -20 66 -53 95 -72 30 -20 72 -61
97 -95 50 -68 110 -143 173 -214 23 -26 42 -51 42 -55 0 -4 13 -26 28 -49 16
-23 50 -74 76 -114 26 -39 58 -83 71 -97 63 -68 215 -334 215 -376 0 -6 20
-53 43 -103 72 -151 109 -247 171 -444 40 -127 119 -283 168 -334 24 -25 50
-55 58 -68 8 -13 27 -37 42 -55 71 -81 96 -129 102 -196 12 -134 19 -177 38
-250 10 -41 23 -86 29 -100 5 -14 11 -77 13 -140 3 -82 10 -133 25 -180 27
-82 48 -200 56 -316 3 -49 8 -102 10 -119 3 -16 7 -79 10 -139 3 -60 12 -141
20 -180 18 -84 19 -143 5 -217 -6 -30 -11 -162 -12 -293 -1 -268 -11 -342 -63
-461 -7 -16 -28 -67 -46 -113 -18 -46 -40 -89 -49 -97 -8 -8 -25 -23 -36 -34
-12 -10 -29 -44 -38 -75 -9 -30 -23 -59 -31 -63 -20 -12 -67 -103 -61 -119 3
-8 16 -14 29 -14 13 0 29 -6 35 -12 10 -10 17 -10 32 0 11 6 46 12 77 12 109
0 306 54 328 90 3 5 1 18 -3 30 -9 24 11 168 28 210 6 14 43 58 83 98 103 104
103 104 111 158 4 27 10 157 12 289 3 178 10 276 26 380 12 77 23 192 23 255
1 63 5 144 9 180 4 36 9 139 12 230 2 91 6 179 8 195 2 17 7 82 11 145 10 176
42 406 64 453 l19 42 3 -30 c1 -16 3 -46 4 -65 2 -19 13 -82 26 -140 22 -101
23 -122 24 -595 1 -270 4 -495 8 -501 7 -13 17 -152 21 -318 2 -81 -2 -140
-12 -180 -20 -82 -35 -110 -92 -175 -14 -16 -36 -44 -50 -62 -14 -18 -29 -37
-35 -43 -31 -34 -54 -97 -60 -171 -5 -44 -14 -89 -21 -100 -22 -35 -35 -107
-26 -155 l7 -45 45 4 c25 2 63 5 85 6 22 1 51 7 65 12 34 15 137 42 181 48 61
8 71 15 64 44 -3 15 1 54 10 88 9 34 15 65 13 70 -7 22 74 162 119 205 108
103 118 133 128 388 3 69 9 166 15 215 6 50 10 196 9 325 -1 212 14 651 25
740 3 19 5 103 6 185 2 184 20 253 87 320 41 42 61 84 49 104 -4 5 -1 13 5 17
12 7 128 19 279 28 52 3 122 10 155 16 151 25 205 33 270 41 137 16 204 28
346 64 79 20 176 43 214 51 39 8 78 19 87 24 10 6 26 10 36 10 10 0 21 3 24 6
6 5 127 50 263 96 33 12 62 24 65 27 3 3 33 20 67 36 35 17 63 34 63 38 0 5 4
6 9 3 5 -3 14 1 21 9 7 8 18 15 25 15 16 0 79 32 83 43 2 4 10 7 18 7 20 0
151 67 191 97 l32 24 42 -23 c65 -35 124 -87 184 -163 22 -27 63 -77 92 -111
29 -34 53 -70 53 -80 0 -39 70 -203 96 -225 8 -6 14 -16 14 -22 0 -6 6 -18 14
-26 7 -9 25 -36 38 -61 14 -25 44 -77 67 -117 22 -40 41 -77 41 -83 0 -6 9
-29 19 -53 11 -23 32 -81 46 -128 18 -59 45 -115 87 -180 97 -149 178 -300
178 -329 0 -6 9 -36 19 -68 11 -31 21 -72 24 -89 3 -18 19 -74 35 -125 16 -51
40 -127 53 -168 12 -41 25 -77 29 -80 15 -12 32 -121 26 -162 -4 -24 -15 -120
-24 -215 -15 -148 -20 -175 -39 -195 -19 -21 -59 -128 -47 -128 2 0 -2 -12
-10 -27 -8 -16 -15 -32 -17 -38 -7 -29 -34 -82 -54 -109 -27 -37 -32 -53 -39
-126 -4 -30 -14 -76 -23 -102 -9 -26 -14 -51 -10 -55 4 -4 53 -1 110 6 56 6
157 14 225 16 67 3 131 9 141 14 16 9 18 25 20 148 1 103 -3 145 -13 166 -17
31 -7 77 25 113 11 11 19 26 19 32 0 7 9 21 20 32 11 11 39 62 62 113 36 80
43 106 52 200 12 136 -2 283 -38 389 -23 67 -26 91 -25 195 1 86 -3 134 -16
178 -10 33 -19 78 -21 100 -4 38 -2 35 36 -40 22 -44 40 -88 40 -97 0 -10 5
-18 10 -18 6 0 10 -7 10 -15 0 -9 9 -35 20 -58 12 -23 28 -69 36 -102 9 -33
31 -105 50 -160 18 -55 40 -139 48 -187 9 -48 18 -97 21 -110 3 -13 7 -43 10
-68 2 -25 9 -72 16 -105 29 -149 8 -317 -57 -447 -13 -26 -24 -53 -24 -60 -1
-16 -28 -71 -61 -123 -38 -60 -91 -200 -113 -294 -7 -32 17 -86 44 -101 15 -8
41 -9 79 -4 31 4 108 8 171 10 144 2 132 0 162 27 49 42 63 105 63 277 l0 156
37 44 c20 25 43 70 53 100 9 30 23 77 32 103 24 74 21 285 -6 412 -31 148 -54
342 -48 410 3 33 9 96 13 140 8 77 10 261 5 421 -2 42 -9 92 -17 110 -21 50
-18 57 19 49 17 -4 36 -11 41 -16 15 -13 84 31 95 61 10 31 2 80 -27 166 -23
67 -28 86 -43 193 -6 40 -14 84 -19 97 -5 13 -12 52 -15 86 -3 35 -11 97 -17
138 -5 41 -11 84 -13 95 -6 51 -18 130 -36 245 -10 69 -26 202 -34 295 -34
373 -45 476 -51 486 -3 6 -10 54 -14 108 -14 155 -57 290 -124 385 -31 45
-139 180 -149 187 -4 3 -14 21 -20 40 -13 36 -82 105 -131 129 -16 8 -37 27
-45 42 -12 21 -24 28 -46 28 -30 0 -94 43 -123 82 -7 10 -19 18 -26 18 -7 0
-21 9 -31 20 -10 11 -27 22 -39 26 -11 3 -37 18 -56 33 -56 41 -176 98 -279
132 -53 17 -105 34 -116 39 -11 5 -31 10 -45 13 -14 2 -78 18 -143 36 -65 17
-121 30 -125 29 -4 -1 -44 4 -90 11 -81 12 -110 11 -262 -10 -186 -26 -263
-39 -370 -64 -63 -14 -171 -35 -240 -45 -69 -11 -150 -26 -180 -33 -58 -16
-155 -32 -254 -42 -33 -4 -71 -11 -85 -16 -13 -6 -86 -14 -160 -19 -184 -13
-283 -28 -323 -47 -41 -21 -251 -29 -358 -14 -76 10 -208 30 -245 36 -70 11
-180 38 -211 51 -45 19 -104 31 -249 49 -60 8 -119 16 -130 18 -11 3 -42 8
-70 11 -124 17 -473 146 -523 193 -6 6 -22 15 -35 19 -12 3 -36 17 -53 29 -43
33 -102 65 -118 65 -8 0 -16 4 -18 8 -1 5 -34 26 -73 48 -38 21 -79 44 -90 51
-11 7 -29 16 -40 22 -11 5 -29 17 -40 28 -34 31 -192 132 -260 165 -75 37
-120 62 -123 71 -2 4 -11 7 -19 7 -9 0 -93 39 -187 86 -166 84 -266 124 -310
124 -11 0 -56 13 -99 29 -42 16 -101 35 -130 41 -28 7 -56 16 -62 20 -5 4 -26
10 -45 13 -19 3 -55 14 -80 26 -25 11 -47 19 -50 19 -3 -1 -23 8 -45 19 -53
28 -132 98 -141 126 -3 12 -30 58 -59 102 -29 44 -65 108 -81 142 -37 81 -57
83 -79 8 -19 -67 -26 -65 -107 25 -58 63 -75 71 -100 43z m7409 -2131 c7 -8
26 -30 40 -50 15 -21 37 -46 48 -57 11 -11 26 -31 33 -45 7 -14 20 -38 30 -55
39 -64 78 -209 81 -300 1 -38 8 -103 16 -145 8 -41 16 -106 19 -145 3 -38 10
-104 15 -145 5 -41 12 -111 16 -155 3 -44 8 -96 10 -115 3 -19 7 -60 9 -90 3
-30 12 -93 20 -140 8 -47 19 -123 25 -170 6 -47 13 -96 16 -110 2 -14 9 -74
15 -135 6 -60 15 -123 20 -140 4 -16 14 -61 20 -100 6 -38 21 -104 32 -145 44
-162 43 -152 23 -166 -11 -8 -23 -10 -29 -5 -23 19 -71 17 -88 -4 -20 -24 -25
-20 -68 60 -18 33 -36 65 -41 71 -25 31 -209 411 -215 442 -4 20 -12 48 -19
62 -7 14 -16 48 -20 75 -4 28 -14 65 -21 84 -19 45 -18 196 1 296 9 44 20 116
26 160 6 44 16 103 24 130 12 46 42 324 39 370 -1 11 -4 76 -8 145 -3 68 -13
163 -20 210 -8 47 -18 110 -21 140 -4 30 -20 86 -36 123 -16 38 -26 74 -22 80
4 7 8 6 11 -3 3 -8 11 -21 19 -28z m-1197 -1581 c14 -9 32 -20 40 -23 35 -13
182 -122 232 -171 62 -62 65 -66 103 -132 16 -28 59 -97 96 -155 36 -58 70
-116 74 -130 10 -33 93 -150 111 -157 8 -3 14 -10 14 -15 0 -6 17 -27 38 -48
66 -68 102 -113 107 -140 5 -23 31 -61 45 -65 12 -4 16 -12 13 -26 -3 -11 -1
-30 4 -42 6 -12 22 -70 37 -129 20 -81 26 -131 26 -213 0 -92 4 -121 30 -199
40 -124 52 -229 40 -365 -11 -126 -41 -206 -113 -301 -23 -30 -54 -83 -68
-119 -25 -63 -26 -64 -7 -99 33 -65 27 -73 -44 -65 -35 3 -79 14 -98 23 -19
10 -52 20 -72 24 -35 6 -49 20 -30 28 4 2 18 44 30 93 17 73 27 95 51 115 28
24 30 31 29 90 -1 74 18 258 32 310 15 54 11 110 -11 170 -47 131 -124 373
-138 440 -32 143 -135 366 -217 467 -33 41 -84 136 -84 159 0 40 -66 197 -128
309 -35 63 -127 205 -145 225 -12 13 -27 41 -32 60 0 3 -11 24 -23 47 -12 23
-22 47 -22 54 0 15 47 4 80 -20z m-2800 -221 c0 -21 -24 -59 -44 -70 -20 -10
-30 -26 -65 -100 -19 -41 -28 -122 -30 -274 -1 -79 -8 -196 -15 -261 -7 -65
-9 -137 -5 -163 4 -26 2 -81 -3 -122 -6 -41 -12 -217 -13 -390 -1 -173 -4
-326 -8 -340 -4 -14 -11 -106 -17 -205 -11 -174 -22 -245 -40 -245 -5 0 -17
-14 -27 -30 -9 -17 -25 -32 -34 -35 -19 -6 -96 -126 -122 -190 -9 -22 -19 -59
-22 -83 -6 -36 -10 -42 -23 -36 -10 4 -53 10 -97 14 -53 4 -96 14 -128 29 -42
20 -47 26 -47 56 0 49 25 99 75 152 24 27 45 51 45 55 0 4 9 15 19 25 19 18
53 70 70 108 18 40 34 136 34 207 1 95 -20 494 -29 558 -3 19 -5 40 -6 45 0
25 13 527 14 533 6 23 -16 275 -27 317 -25 90 -33 149 -29 200 11 136 8 128
55 146 73 28 374 94 464 102 22 2 43 4 48 5 4 1 7 -2 7 -8z m3457 -2408 c10
-5 43 -15 73 -22 81 -18 100 -33 100 -79 0 -21 -6 -43 -13 -49 -7 -6 -68 -13
-137 -17 -69 -3 -138 -7 -155 -8 -16 -1 -33 -6 -37 -12 -17 -23 -19 27 -2 53
10 15 20 40 21 57 4 43 63 95 102 90 17 -2 38 -8 48 -13z m-4122 -166 c28 -8
76 -17 108 -21 54 -6 64 -14 55 -42 -2 -4 -48 -22 -103 -41 -68 -22 -113 -32
-145 -30 -42 3 -45 5 -45 31 -1 47 47 130 70 122 6 -2 33 -10 60 -19z m4681
-156 c36 -27 72 -50 80 -50 8 0 14 -4 14 -8 0 -5 24 -19 54 -32 80 -33 64 -45
-62 -45 -59 0 -126 -3 -149 -6 -58 -8 -67 0 -59 51 6 41 44 140 53 140 2 0 33
-22 69 -50z m-5288 -29 c26 -11 59 -22 74 -25 18 -4 30 -15 34 -31 8 -32 -2
-45 -32 -45 -14 0 -33 -4 -43 -9 -10 -6 -54 -12 -99 -15 -45 -3 -90 -10 -101
-16 -27 -14 -31 -13 -31 9 0 10 13 29 28 42 15 13 33 37 40 52 7 16 21 31 32
34 11 3 20 9 20 14 0 14 28 11 78 -10z"/>
<path d="M14615 7099 c-4 -5 -4 -45 -1 -87 10 -111 -23 -254 -69 -300 -30 -30
-30 -66 0 -69 22 -3 77 63 89 107 4 14 14 50 22 80 19 71 19 237 0 269 -9 14
-33 14 -41 0z"/>
<path d="M8410 12793 c-11 -14 -20 -28 -20 -32 0 -3 -15 -12 -32 -20 -18 -8
-50 -32 -71 -55 l-38 -41 4 38 c4 46 -32 89 -61 71 -20 -13 -137 -168 -152
-202 -5 -12 -33 -46 -61 -75 -28 -28 -55 -60 -60 -69 -5 -10 -44 -34 -87 -54
-42 -20 -79 -40 -80 -45 -2 -5 -8 -7 -13 -3 -5 3 -18 -1 -30 -9 -15 -11 -17
-16 -7 -21 7 -3 4 -4 -8 -1 -12 3 -35 -4 -55 -18 -65 -44 -127 -74 -165 -81
-22 -4 -66 -20 -99 -36 -33 -16 -112 -45 -175 -65 -63 -21 -140 -50 -170 -64
-90 -44 -208 -108 -222 -121 -17 -15 -90 -57 -212 -120 -55 -29 -133 -75 -174
-103 -40 -29 -100 -70 -133 -93 -33 -23 -89 -69 -124 -103 -36 -34 -65 -58
-65 -55 0 4 -8 -3 -19 -14 -10 -12 -25 -22 -33 -22 -9 0 -21 -6 -27 -14 -21
-25 -132 -86 -157 -86 -28 0 -119 -33 -143 -52 -9 -8 -34 -20 -56 -27 -22 -8
-50 -22 -62 -31 -12 -9 -49 -23 -82 -30 -34 -7 -61 -16 -61 -20 0 -4 -25 -11
-55 -15 -30 -3 -75 -17 -101 -30 -26 -13 -70 -29 -98 -35 -126 -27 -224 -54
-261 -70 -40 -18 -226 -50 -320 -55 -322 -17 -400 -15 -595 14 -174 26 -227
34 -245 36 -49 5 -117 19 -203 41 -51 13 -98 22 -103 19 -5 -4 -9 -1 -9 5 0 6
-6 10 -12 9 -7 -2 -44 5 -83 14 -38 9 -131 23 -205 31 -74 8 -166 18 -205 23
-38 4 -78 7 -87 7 -10 0 -18 3 -18 6 0 17 -189 20 -305 5 -66 -9 -140 -18
-165 -21 -25 -2 -67 -9 -95 -14 -27 -5 -75 -12 -105 -15 -30 -3 -82 -10 -115
-15 -33 -5 -80 -13 -105 -16 -46 -6 -136 -47 -205 -94 -22 -14 -67 -44 -100
-66 -33 -21 -85 -61 -115 -89 -30 -28 -82 -73 -115 -100 -32 -28 -101 -91
-153 -142 -64 -63 -98 -90 -109 -86 -10 4 -23 -3 -35 -18 -29 -37 -78 -109
-78 -115 0 -3 -20 -36 -45 -74 -68 -106 -74 -122 -105 -263 -15 -73 -40 -163
-55 -202 -14 -38 -40 -122 -56 -185 -24 -97 -28 -127 -23 -190 8 -91 8 -77 -6
-285 -6 -93 -10 -213 -10 -265 0 -52 -4 -131 -10 -175 -6 -44 -14 -110 -19
-146 -5 -36 -19 -85 -32 -110 -22 -41 -24 -55 -24 -224 0 -99 -4 -230 -9 -291
l-8 -112 34 -11 c32 -10 36 -16 45 -64 5 -29 9 -185 8 -350 -1 -243 1 -297 12
-293 18 7 16 -4 -4 -19 -15 -11 -15 -19 -6 -58 6 -30 7 -44 0 -40 -6 4 -8 -22
-3 -73 8 -99 8 -89 1 -154 -3 -30 -8 -149 -11 -265 -6 -209 -6 -210 19 -265
14 -30 37 -68 51 -84 14 -15 33 -49 42 -75 9 -25 22 -59 29 -76 7 -16 18 -61
25 -100 7 -38 16 -91 21 -116 4 -25 5 -55 2 -67 -4 -18 -1 -22 19 -22 29 0 63
33 52 51 -4 7 -3 10 3 6 6 -4 13 -1 16 7 4 9 28 17 64 22 32 3 101 22 153 41
52 19 102 36 112 39 18 6 37 -28 59 -104 21 -71 24 -70 -307 -72 -114 0 -133
-2 -138 -17 -12 -29 10 -35 125 -33 63 2 164 4 224 5 139 2 159 8 151 43 -3
15 -11 54 -17 87 -6 33 -21 80 -34 105 -12 25 -37 74 -55 110 -18 36 -50 83
-71 105 -36 38 -70 117 -66 155 2 20 -12 147 -36 321 -16 115 -15 146 13 434
13 131 22 172 51 220 23 38 42 85 76 188 31 92 44 54 46 -134 0 -74 -3 -215
-9 -314 -5 -99 -9 -218 -9 -265 1 -81 3 -90 40 -155 22 -39 42 -74 43 -80 2
-5 20 -43 39 -83 29 -59 38 -95 49 -185 18 -146 32 -206 53 -216 9 -4 90 -6
181 -5 125 3 177 8 213 21 48 17 49 18 43 53 -10 65 -28 125 -55 185 -5 11
-22 57 -37 102 -15 45 -31 80 -36 77 -4 -3 -8 3 -8 13 0 11 -4 23 -10 29 -11
11 -54 130 -77 214 -34 119 -32 205 8 440 10 56 22 170 34 315 12 150 35 257
76 348 21 48 39 90 39 94 0 3 18 44 40 89 22 46 40 86 40 89 0 4 9 18 20 32
11 14 20 34 20 44 0 11 4 19 9 19 5 0 13 10 17 23 3 12 33 61 65 109 33 49 59
92 59 97 0 5 3 11 8 13 11 5 81 149 88 183 14 60 110 244 158 300 54 63 106
156 102 180 -3 15 1 26 10 29 9 3 13 10 9 15 -3 6 6 18 20 28 14 10 40 31 58
46 18 16 50 40 72 55 49 33 67 47 119 92 84 73 256 173 351 205 22 8 61 17 87
20 52 8 72 24 62 50 -8 19 -14 18 -114 -15 -124 -42 -256 -111 -320 -167 -13
-13 -30 -23 -36 -23 -6 0 -18 -7 -25 -16 -8 -9 -30 -27 -49 -40 -19 -12 -49
-35 -67 -51 -17 -15 -72 -57 -122 -92 -50 -34 -94 -67 -97 -72 -3 -5 -40 -35
-82 -66 -121 -88 -288 -241 -321 -294 -9 -14 -31 -38 -49 -53 -17 -15 -32 -34
-32 -41 0 -7 -13 -27 -30 -45 -16 -18 -30 -35 -30 -39 0 -4 -11 -18 -25 -31
-14 -13 -25 -29 -25 -35 0 -7 -9 -20 -20 -30 -11 -10 -20 -22 -20 -26 0 -4
-14 -23 -31 -41 -17 -18 -39 -49 -49 -68 -10 -19 -27 -44 -39 -54 -12 -11 -31
-36 -43 -55 -12 -20 -35 -52 -53 -71 -31 -35 -78 -110 -129 -205 -15 -27 -41
-71 -59 -97 -105 -152 -164 -272 -223 -445 -25 -75 -59 -160 -74 -188 -29 -52
-43 -127 -55 -305 -3 -47 -11 -103 -17 -125 -10 -39 -1 -166 22 -340 6 -38 14
-118 20 -178 11 -118 18 -137 84 -216 55 -67 81 -114 73 -133 -10 -29 -155
-81 -240 -88 -51 -4 -82 -12 -87 -20 -15 -24 -24 -3 -41 93 -22 118 -56 210
-98 267 -73 100 -68 43 -62 615 1 83 1 191 0 240 0 50 3 106 9 126 5 22 6 158
2 345 -6 288 -5 312 12 347 10 20 25 37 32 37 13 0 23 16 78 123 20 40 21 78
1 84 -6 2 -26 -27 -45 -66 -19 -40 -39 -70 -48 -70 -9 -1 -33 -19 -55 -41 -22
-21 -46 -39 -52 -40 -10 0 -13 50 -14 203 -3 320 -4 312 20 346 12 17 19 36
15 42 -4 7 -3 9 3 6 36 -22 80 461 47 514 -4 8 -3 9 4 5 12 -7 13 4 18 134 1
25 4 92 8 150 4 58 3 125 -1 150 -9 49 -3 93 33 240 35 146 47 185 55 190 5 3
16 42 25 85 9 44 20 84 25 90 5 5 9 23 9 40 0 16 11 52 25 79 13 27 21 54 18
59 -3 6 -2 7 4 4 6 -4 18 11 28 33 10 22 22 40 27 40 4 0 8 9 8 20 0 11 4 20
9 20 5 0 24 23 42 52 35 54 54 47 25 -9 -8 -16 -19 -64 -25 -107 -6 -42 -15
-85 -20 -94 -4 -9 -11 -69 -15 -132 -4 -63 -9 -154 -12 -202 -5 -76 -2 -99 21
-175 15 -49 33 -104 41 -123 28 -70 37 -128 44 -285 7 -145 12 -191 39 -350 6
-36 5 -59 -5 -83 -20 -49 -28 -142 -14 -177 8 -20 8 -31 1 -33 -6 -2 -11 -10
-11 -18 0 -27 -33 -118 -57 -156 -13 -21 -23 -42 -23 -47 0 -6 -6 -14 -14 -18
-7 -4 -19 -19 -26 -33 -7 -13 -31 -47 -53 -75 -21 -27 -43 -60 -48 -74 -5 -13
-18 -36 -29 -52 -15 -20 -17 -30 -9 -35 8 -5 9 -3 4 6 -5 9 -2 10 11 6 15 -4
27 8 59 60 34 56 83 126 128 185 23 29 47 77 47 92 0 9 4 17 9 19 8 3 68 299
76 376 3 33 1 42 -11 42 -13 0 -15 10 -13 48 1 26 -1 81 -5 122 -4 41 -8 134
-10 205 -2 100 -8 147 -25 205 -13 41 -29 95 -36 120 -8 25 -23 72 -35 105
-17 47 -20 72 -15 115 7 58 16 210 15 271 0 20 4 48 10 63 5 15 17 74 25 133
9 58 25 125 36 149 17 36 158 185 236 251 12 10 41 34 64 53 23 19 52 44 64
55 43 39 101 82 134 100 19 9 57 33 85 53 75 52 128 69 293 92 81 11 171 24
198 29 28 5 59 9 70 9 11 0 63 8 115 16 52 9 124 16 160 16 49 0 61 3 50 11
-12 9 -11 9 5 4 11 -5 34 -10 50 -12 163 -24 248 -34 350 -43 145 -13 227 -27
485 -84 36 -7 69 -11 74 -8 5 3 6 -1 1 -8 -5 -9 -2 -10 13 -6 11 4 23 2 27 -4
9 -14 88 -13 104 3 10 10 11 9 6 -5 -5 -13 0 -18 27 -22 31 -4 124 -17 228
-31 25 -4 65 -9 90 -13 50 -6 303 -8 423 -1 73 3 93 10 65 23 -7 3 14 3 47 0
64 -6 191 13 266 41 24 9 85 25 134 36 102 22 212 56 220 69 3 5 24 11 48 15
23 3 68 15 100 26 31 10 63 19 70 19 13 0 34 10 182 81 51 25 84 34 121 34 50
0 54 2 131 65 7 6 23 15 35 20 50 22 129 78 189 134 58 53 150 123 201 152 10
6 29 21 42 33 12 11 27 21 33 21 6 0 16 6 22 14 6 7 46 30 89 52 42 21 95 49
117 63 58 37 76 48 115 67 19 10 37 21 40 25 3 4 35 22 70 40 36 17 76 40 90
51 14 10 91 41 170 69 80 28 159 56 175 64 17 7 68 26 115 41 47 15 108 42
136 58 27 17 59 36 70 43 10 6 18 16 17 22 -2 6 3 8 10 5 7 -2 35 6 62 19 28
13 72 32 99 43 55 22 217 177 244 235 9 19 19 36 22 39 3 3 21 26 40 53 18 26
37 47 42 47 14 0 16 -255 2 -317 -5 -27 -3 -33 10 -33 30 0 48 67 43 162 -4
82 -3 88 22 119 55 68 79 87 106 82 22 -5 25 -10 26 -52 1 -80 6 -145 13 -182
l8 -36 -43 8 c-24 4 -54 10 -66 14 -17 5 -23 3 -23 -8 0 -21 20 -34 65 -43 50
-9 97 -39 154 -98 24 -25 48 -43 53 -40 4 3 8 -1 8 -9 0 -13 153 -164 227
-222 21 -17 64 -46 95 -65 31 -18 62 -43 68 -55 6 -11 28 -32 49 -44 21 -13
62 -51 92 -84 60 -68 119 -127 170 -172 19 -16 48 -57 64 -89 32 -64 58 -84
145 -117 80 -30 116 -64 141 -133 22 -64 20 -100 -7 -155 -16 -32 -68 -81 -87
-81 -7 0 -25 -7 -42 -16 -35 -19 -95 -20 -107 -2 -4 7 -15 36 -24 65 -15 51
-40 75 -55 51 -4 -6 1 -35 12 -62 27 -73 26 -78 -18 -70 -53 9 -98 29 -125 54
-74 69 -263 119 -469 125 -64 1 -122 6 -127 9 -6 3 -50 13 -99 22 -175 30
-219 44 -270 82 -65 50 -82 73 -114 160 -14 39 -34 62 -55 62 -16 0 -20 -45
-4 -55 6 -3 10 -15 10 -26 0 -11 11 -37 25 -59 14 -22 25 -45 25 -53 0 -19
-80 -67 -112 -67 -28 0 -94 -28 -165 -70 -60 -36 -132 -111 -159 -166 -13 -28
-40 -67 -59 -87 -18 -19 -42 -48 -52 -64 -19 -30 -104 -145 -113 -153 -11 -11
-50 -70 -50 -76 0 -4 -24 -33 -52 -64 -65 -69 -86 -97 -101 -130 -7 -14 -20
-34 -29 -44 -10 -11 -18 -24 -18 -28 0 -11 -42 -72 -52 -76 -5 -2 -8 -8 -8
-14 0 -6 -11 -34 -24 -62 -31 -67 -78 -197 -115 -321 -44 -146 -68 -226 -80
-260 -6 -16 -24 -75 -41 -130 -17 -55 -47 -131 -66 -168 -47 -93 -133 -224
-150 -231 -8 -3 -14 -12 -14 -20 0 -7 -6 -16 -13 -19 -22 -8 -82 -106 -112
-182 -19 -47 -29 -94 -32 -145 -2 -41 -13 -113 -24 -160 -11 -47 -25 -116 -30
-155 -5 -38 -19 -113 -31 -165 -11 -52 -24 -147 -28 -210 -15 -204 -21 -273
-25 -280 -7 -12 -8 -578 -1 -680 4 -58 9 -186 11 -285 3 -179 12 -238 47 -311
8 -16 25 -65 37 -109 13 -44 34 -109 48 -144 13 -36 20 -67 15 -70 -5 -3 -17
-21 -27 -40 -25 -49 -44 -67 -92 -86 -24 -10 -43 -21 -43 -26 0 -5 -4 -9 -10
-9 -5 0 -10 7 -10 16 0 25 -68 146 -110 194 -76 87 -102 126 -132 189 -27 60
-29 70 -27 180 1 64 9 177 16 251 16 148 11 275 -13 366 -16 61 -23 146 -29
339 -3 120 -17 233 -34 279 -6 13 -14 91 -20 172 -14 194 -30 264 -81 359 -42
75 -79 193 -80 246 0 16 -12 40 -29 58 -15 16 -26 33 -23 35 3 3 -1 13 -8 21
-9 11 -30 15 -69 15 -86 -1 -565 11 -856 21 -290 10 -432 22 -508 43 -29 8
-87 17 -129 21 -42 3 -103 15 -135 26 -32 11 -78 24 -103 29 -61 11 -156 38
-194 54 -17 7 -76 28 -131 46 -55 18 -129 44 -165 57 -67 25 -81 31 -240 106
-122 56 -141 63 -225 83 -96 22 -165 28 -177 16 -8 -8 -2 -13 18 -16 185 -36
292 -71 428 -141 94 -49 297 -127 362 -141 12 -2 35 -11 50 -19 16 -8 38 -15
49 -15 12 0 37 -8 58 -19 20 -10 78 -28 129 -40 125 -29 171 -43 186 -54 7 -5
49 -11 95 -12 45 0 93 -7 105 -14 36 -20 93 -28 237 -36 55 -3 106 -8 114 -11
8 -2 110 -7 229 -10 153 -4 212 -3 208 5 -4 6 -2 11 3 11 6 0 11 -6 11 -14 0
-9 9 -13 25 -12 14 2 30 -3 36 -10 12 -15 36 -104 49 -181 4 -29 13 -67 19
-85 14 -43 20 -145 27 -408 2 -118 9 -233 14 -255 14 -60 22 -245 24 -555 1
-198 7 -304 18 -380 10 -58 22 -145 27 -193 15 -130 75 -233 154 -264 41 -17
119 -103 141 -157 7 -17 21 -62 31 -101 10 -38 23 -76 28 -82 5 -7 30 -13 56
-13 26 0 55 -6 66 -14 13 -8 51 -15 100 -16 44 -1 98 -3 120 -5 42 -3 125 28
125 47 0 6 -11 23 -25 40 -14 16 -46 71 -71 121 -25 51 -54 106 -64 122 -11
17 -42 77 -70 134 -28 58 -63 116 -77 130 -38 39 -70 109 -88 197 -13 64 -15
116 -11 274 9 313 8 666 -2 795 -10 128 -7 272 8 370 5 33 12 94 15 135 8 90
12 97 33 68 72 -97 104 -223 116 -443 3 -60 10 -126 16 -145 21 -70 31 -169
35 -324 4 -172 8 -206 32 -306 20 -82 22 -244 5 -380 -7 -58 -14 -164 -15
-236 -2 -129 -2 -130 33 -199 38 -77 93 -156 134 -194 47 -44 96 -144 105
-216 4 -35 9 -67 12 -69 2 -2 33 -18 68 -36 70 -35 87 -37 279 -31 76 3 115 8
118 16 10 25 -93 250 -131 285 -14 13 -25 28 -25 32 0 5 -11 24 -24 41 -13 18
-40 84 -59 147 -20 63 -50 155 -67 204 -31 87 -31 89 -29 280 0 105 -4 239
-10 297 -11 105 -9 553 4 654 3 28 10 120 15 205 5 85 15 180 23 210 8 30 19
89 26 130 17 111 69 353 89 422 6 18 15 49 21 69 6 19 11 48 11 64 0 29 39
104 73 140 27 29 52 63 89 120 18 28 39 60 46 70 29 45 103 210 117 263 16 55
73 232 117 357 11 33 26 83 33 110 6 28 15 59 20 70 4 11 25 66 47 122 21 56
45 107 53 113 8 7 15 17 15 21 0 5 16 33 35 61 20 28 33 53 31 55 -2 3 2 12
10 21 8 9 31 38 52 63 20 25 56 68 79 95 42 49 93 121 93 130 0 3 11 17 25 32
14 15 38 47 52 72 15 25 42 61 60 80 34 35 103 143 103 160 0 5 10 15 23 21
12 7 31 22 42 34 11 13 38 32 60 43 22 12 36 22 30 22 -18 2 69 31 117 40 26
5 56 13 67 19 11 6 29 11 41 11 11 0 23 7 26 15 8 19 30 19 41 1 19 -32 120
-64 282 -92 52 -8 109 -21 127 -29 24 -10 43 -11 74 -4 23 5 51 7 61 4 10 -4
58 -10 106 -15 150 -14 193 -29 348 -124 56 -35 103 -45 211 -46 69 0 89 4
140 29 93 46 131 90 162 188 16 50 -19 169 -61 206 -54 47 -119 87 -162 99
-49 14 -75 35 -75 60 0 24 -49 90 -61 82 -5 -3 -9 -1 -9 5 0 6 -39 50 -86 98
-47 49 -108 112 -136 141 -28 28 -54 52 -57 52 -4 0 -27 20 -51 45 -24 25 -50
45 -57 45 -7 0 -13 5 -13 10 0 6 -7 10 -15 10 -8 0 -33 16 -55 36 -22 20 -40
32 -40 28 0 -5 -4 -4 -8 1 -16 23 -99 84 -105 78 -4 -3 -7 1 -7 10 0 16 -93
113 -170 178 -25 20 -43 44 -43 55 1 10 -5 42 -13 69 -15 55 -21 224 -9 296 9
57 -13 73 -45 32z m-5903 -3813 c-20 -40 -39 -63 -54 -66 -16 -4 -33 -27 -55
-73 -18 -36 -48 -92 -66 -123 -18 -32 -31 -62 -27 -68 3 -5 2 -10 -4 -10 -5 0
-17 -21 -26 -47 -54 -155 -56 -160 -185 -353 -54 -82 -92 -159 -84 -173 4 -7
4 -9 -1 -5 -7 6 -125 -220 -125 -239 0 -5 -9 -25 -20 -46 -47 -87 -68 -196
-95 -487 -8 -85 -24 -207 -36 -270 -11 -63 -21 -158 -22 -210 -1 -84 4 -109
37 -210 37 -116 60 -170 95 -225 11 -16 34 -65 51 -108 16 -42 44 -99 60 -126
17 -27 31 -65 33 -85 l2 -37 -65 -6 c-36 -3 -128 -6 -205 -7 l-140 -1 -6 35
c-3 19 -10 47 -14 62 -6 25 -5 27 21 27 35 -1 141 16 235 37 71 16 96 37 79
64 -8 13 -14 13 -42 1 -45 -18 -131 -38 -201 -46 -37 -4 -66 -14 -78 -26 -19
-19 -19 -18 -19 40 0 77 -21 139 -98 291 l-64 125 7 120 c26 426 24 745 -5
780 -14 17 -6 65 20 109 10 17 26 47 36 66 11 19 27 42 37 51 9 9 17 23 17 30
1 8 14 30 30 49 17 19 30 40 30 46 0 7 6 19 13 26 7 7 24 36 37 63 13 28 37
69 52 91 15 23 28 46 28 52 0 5 7 16 16 23 23 19 154 196 154 207 0 5 7 16 16
23 9 8 27 30 40 49 24 34 72 100 97 130 7 8 23 31 37 50 35 50 48 65 118 142
34 39 60 74 57 79 -4 5 0 6 7 4 8 -3 23 5 34 17 23 26 63 61 114 99 19 15 44
36 55 46 18 17 96 73 102 73 1 0 -12 -27 -30 -60z m3111 -295 c65 -5 102 -12
102 -19 0 -7 9 -29 20 -51 20 -39 26 -86 13 -99 -38 -37 -76 -446 -60 -641 11
-137 9 -706 -3 -782 -12 -72 -5 -287 12 -358 17 -75 44 -132 84 -178 40 -46
135 -239 125 -254 -16 -23 -119 -91 -141 -93 -66 -5 -77 -1 -108 48 -60 90
-87 120 -134 146 -27 15 -48 30 -48 34 0 4 -14 23 -31 42 -45 52 -56 78 -63
150 -3 36 -10 90 -15 120 -6 30 -13 74 -15 98 -3 23 -8 47 -12 54 -9 15 -13
120 -18 478 -3 207 -9 319 -19 375 -10 50 -18 172 -21 325 -4 162 -11 266 -21
307 -8 35 -17 82 -20 105 -3 23 -10 60 -16 83 -20 71 -20 113 -1 117 33 6 288
2 390 -7z m370 -2507 c18 -35 41 -78 53 -95 22 -35 23 -33 -23 -47 -16 -4
-139 10 -225 25 -49 9 -62 15 -67 32 -12 47 -8 57 27 57 18 0 51 9 72 21 22
12 52 28 67 36 15 8 30 18 33 24 14 22 34 5 63 -53z m646 -192 c54 -109 57
-106 -86 -105 -99 0 -132 4 -168 20 -24 11 -48 25 -52 32 -12 19 -9 37 6 37
35 0 108 45 150 91 25 28 46 56 46 63 1 23 69 -68 104 -138z"/>
<path d="M1549 7783 c-8 -20 -8 -41 0 -73 6 -25 11 -85 13 -135 2 -106 15
-157 37 -153 11 3 15 12 13 28 -5 46 -14 254 -13 308 0 46 -2 52 -19 52 -13 0
-24 -10 -31 -27z"/>
<path d="M5473 6894 c-5 -14 3 -104 22 -253 7 -53 26 -103 53 -138 46 -61 80
-31 39 34 -31 49 -57 177 -62 303 -1 30 -3 58 -4 63 -2 14 -42 7 -48 -9z"/>
<path d="M11567 12283 c-12 -21 -41 -66 -64 -100 -39 -57 -41 -64 -26 -78 14
-15 18 -14 39 6 13 12 24 28 24 35 0 6 7 14 15 18 8 3 15 13 15 22 0 17 46 86
62 92 13 6 -11 42 -28 42 -8 0 -25 -17 -37 -37z"/>
<path d="M8390 12232 c0 -10 7 -41 16 -68 9 -27 18 -55 20 -62 6 -19 44 4 44
26 0 9 -8 40 -18 67 -13 37 -24 51 -40 53 -16 3 -22 -2 -22 -16z"/>
<path d="M11309 12016 c-62 -25 -119 -62 -119 -77 0 -23 32 -18 95 15 70 38
125 47 125 21 0 -19 -31 -35 -66 -32 -25 2 -29 -2 -29 -23 0 -23 4 -25 49 -28
42 -3 53 1 77 24 15 14 34 24 42 21 22 -8 41 9 32 29 -4 11 -7 27 -6 37 5 41
-113 49 -200 13z"/>
<path d="M8567 11990 c-62 -12 -137 -51 -137 -72 0 -30 42 -32 99 -4 42 22 51
23 51 11 0 -9 -7 -18 -15 -21 -23 -9 -18 -27 14 -58 l30 -29 30 34 c17 18 34
42 37 52 3 10 17 22 31 28 31 11 25 33 -10 36 -14 1 -39 9 -56 17 -16 9 -31
15 -33 15 -2 -1 -20 -5 -41 -9z"/>
<path d="M11281 11739 c-17 -22 -37 -62 -47 -87 -9 -26 -27 -75 -41 -108 -28
-68 -27 -99 1 -99 23 0 25 4 68 124 19 55 46 109 65 131 36 42 41 65 17 74
-27 10 -33 7 -63 -35z"/>
<path d="M8633 11743 c-18 -6 -16 -66 3 -111 9 -20 24 -62 35 -93 25 -75 71
-164 84 -162 27 4 28 32 3 84 -37 76 -75 176 -89 232 -12 51 -17 57 -36 50z"/>
<path d="M12094 11617 c-5 -13 41 -107 88 -183 14 -22 51 -66 82 -97 31 -32
56 -62 56 -67 0 -6 8 -10 17 -10 9 0 14 -2 11 -5 -3 -4 10 -24 30 -45 19 -22
47 -60 61 -84 14 -25 53 -73 87 -109 33 -35 67 -72 75 -83 8 -11 26 -27 41
-37 15 -9 48 -39 74 -67 26 -27 51 -50 55 -50 5 0 19 -9 31 -19 13 -11 47 -38
76 -60 28 -23 63 -58 76 -79 13 -20 44 -59 68 -85 38 -43 45 -47 61 -35 16 12
14 16 -20 55 -21 23 -54 65 -73 93 -31 45 -60 71 -161 145 -15 11 -54 45 -87
75 -33 30 -76 69 -96 85 -19 17 -36 34 -36 38 0 5 -23 32 -51 60 -27 29 -63
75 -79 102 -16 28 -48 68 -72 91 -24 23 -61 63 -83 89 -22 26 -46 54 -52 61
-7 7 -13 15 -13 19 0 3 -9 16 -21 28 -12 12 -35 51 -52 87 -17 36 -37 73 -45
83 -18 20 -41 22 -48 4z"/>
<path d="M7743 11533 c-7 -2 -13 -17 -13 -31 0 -30 -63 -151 -134 -260 -25
-39 -46 -75 -46 -80 0 -5 -7 -16 -17 -23 -9 -8 -24 -27 -34 -43 -10 -16 -100
-114 -201 -216 -188 -192 -258 -270 -293 -324 -34 -54 -40 -63 -58 -89 -22
-30 -14 -55 10 -35 8 7 37 44 64 83 49 72 378 415 397 415 6 0 25 14 42 30 17
17 28 30 24 30 -4 0 6 12 22 28 45 43 166 229 240 368 45 86 47 93 35 122 -14
33 -16 34 -38 25z"/>
<path d="M10542 11378 c-7 -7 -12 -27 -12 -45 0 -19 -11 -50 -26 -72 -28 -43
-29 -84 -3 -89 9 -2 24 4 32 13 9 8 20 15 25 15 14 0 62 99 62 128 0 53 -46
82 -78 50z"/>
<path d="M9395 11360 c-8 -13 2 -121 15 -172 6 -20 19 -47 30 -60 15 -19 22
-21 37 -12 15 10 17 23 15 85 -3 48 -10 82 -20 98 -10 13 -21 31 -27 40 -19
30 -39 39 -50 21z"/>
<path d="M13878 10971 c-24 -9 -65 -66 -85 -120 -14 -40 -97 -145 -162 -206
-12 -11 -34 -33 -49 -49 -15 -16 -49 -50 -75 -75 -88 -83 -168 -203 -197 -296
-7 -22 -26 -66 -42 -99 -32 -62 -31 -89 3 -84 16 2 28 23 55 93 19 50 44 110
57 135 12 24 21 48 20 51 -1 4 18 30 42 57 25 28 45 53 45 57 0 4 70 78 156
164 116 116 163 171 186 216 17 32 41 76 55 97 25 41 21 70 -9 59z"/>
<path d="M6083 10864 c-7 -19 75 -186 88 -178 4 2 16 -7 26 -22 10 -14 41 -52
68 -84 28 -31 63 -73 78 -93 15 -21 34 -37 42 -37 21 0 75 -69 130 -166 28
-49 53 -96 57 -105 4 -10 12 -20 18 -24 6 -4 16 -17 21 -28 5 -12 18 -35 28
-52 11 -16 29 -48 41 -70 28 -50 49 -75 67 -75 17 0 17 20 -1 45 -7 11 -35 61
-61 110 -26 50 -53 97 -61 106 -8 8 -14 19 -14 23 0 4 -10 22 -22 39 -13 18
-32 50 -43 72 -34 67 -71 119 -105 145 -51 40 -108 101 -205 223 -11 13 -23
23 -28 20 -4 -2 -6 -1 -5 4 1 4 -5 22 -15 38 -10 17 -27 50 -40 75 -23 47 -53
63 -64 34z"/>
<path d="M18467 10853 c-14 -14 -6 -35 26 -68 18 -19 45 -66 62 -112 l30 -78
3 -380 c2 -209 4 -398 4 -420 0 -22 0 -121 -1 -220 -1 -99 3 -211 9 -250 6
-38 15 -99 21 -135 13 -86 57 -220 81 -246 11 -12 32 -24 48 -27 20 -4 29 -13
32 -29 2 -15 11 -24 26 -26 12 -2 22 1 22 6 0 24 -13 42 -31 42 -13 0 -28 20
-53 73 -39 83 -47 111 -75 262 -22 116 -24 221 -26 1010 0 318 0 320 -26 395
-32 90 -60 150 -71 150 -4 0 -8 6 -8 14 0 31 -53 60 -73 39z"/>
<path d="M10739 10667 c-19 -16 -38 -57 -69 -152 -38 -115 -59 -168 -115 -289
-31 -69 -68 -238 -68 -311 1 -135 1 -135 29 -135 l25 0 -5 83 c-5 94 22 249
61 347 4 8 7 17 8 20 0 3 17 37 37 75 19 39 52 124 73 190 20 66 41 124 45
129 5 4 21 -11 37 -35 15 -24 31 -46 34 -49 15 -12 48 -91 68 -160 40 -147 52
-256 42 -401 -5 -74 -9 -141 -10 -149 0 -8 -10 -69 -21 -135 -11 -66 -25 -150
-31 -187 -11 -67 -11 -68 -42 -68 -74 0 -89 10 -241 155 -18 17 -69 74 -115
128 -123 144 -295 273 -380 286 l-46 6 3 145 c3 110 0 149 -10 163 -11 15 -16
16 -31 4 -24 -17 -28 -69 -12 -165 11 -68 12 -101 7 -150 -1 -7 -6 -11 -11 -7
-25 15 -274 -92 -323 -138 -13 -12 -34 -36 -48 -52 -53 -62 -57 -62 -70 2 -12
63 -59 215 -69 223 -3 3 -7 12 -9 20 -3 14 -29 74 -63 144 -25 52 -34 66 -41
66 -4 0 -5 7 -2 15 4 8 1 15 -6 15 -7 0 -10 7 -6 15 3 8 1 15 -4 15 -5 0 -12
9 -15 20 -4 11 -10 18 -15 15 -4 -3 -8 1 -7 8 1 49 -4 77 -15 71 -6 -4 -8 -3
-5 3 10 16 -15 97 -40 126 -12 16 -23 32 -23 37 0 13 -42 20 -62 9 -21 -11
-118 -209 -147 -300 -31 -97 -43 -268 -26 -365 8 -43 21 -132 29 -196 8 -64
19 -125 24 -135 5 -10 13 -43 17 -73 3 -30 16 -84 27 -120 18 -56 20 -70 9
-110 -16 -59 -34 -203 -33 -259 1 -42 -28 -111 -47 -111 -4 0 -20 -22 -36 -50
-16 -27 -32 -50 -36 -50 -4 0 -12 -15 -19 -32 -7 -18 -20 -48 -28 -66 -14 -31
-13 -37 14 -104 15 -39 36 -73 46 -77 14 -5 7 -13 -33 -41 -86 -59 -95 -71
-102 -129 -5 -41 -2 -61 10 -81 15 -26 15 -29 -4 -56 -42 -60 -37 -119 15
-179 31 -35 41 -81 44 -210 1 -50 8 -74 45 -144 43 -84 44 -86 58 -250 19
-217 42 -396 53 -418 5 -10 12 -33 15 -50 4 -18 22 -56 42 -84 19 -28 35 -55
35 -61 0 -17 55 -78 70 -78 12 0 19 -29 33 -132 10 -73 23 -162 28 -198 13
-94 39 -299 44 -345 2 -22 7 -71 10 -110 10 -100 11 -109 34 -220 29 -149 32
-191 12 -218 -63 -83 -101 -176 -101 -248 0 -18 -17 -68 -37 -112 -35 -74 -36
-81 -25 -123 7 -24 12 -66 12 -92 0 -26 5 -63 11 -82 5 -19 17 -73 24 -119 21
-125 88 -222 193 -283 30 -17 58 -41 64 -54 6 -13 17 -24 24 -24 7 0 20 -7 28
-16 34 -33 111 -65 199 -81 120 -23 383 -27 486 -8 42 7 98 16 124 20 33 4 78
24 139 61 50 30 94 54 98 54 14 0 89 83 107 119 10 20 21 38 24 41 38 31 108
282 108 387 0 38 7 127 16 197 16 124 16 129 -4 195 -14 46 -30 76 -51 94 -16
15 -30 24 -30 20 0 -15 -63 54 -75 82 -16 39 -11 95 26 280 17 82 29 164 27
182 -2 18 0 33 5 33 5 0 6 17 3 38 -4 20 -2 57 3 82 72 342 83 592 40 900 -7
47 -13 148 -14 225 -2 146 -12 189 -43 183 -11 -3 -16 -12 -14 -28 1 -14 2
-63 2 -110 0 -76 17 -273 39 -459 9 -81 4 -299 -9 -364 -6 -26 -10 -74 -10
-105 0 -31 -11 -102 -25 -157 -14 -55 -25 -127 -24 -160 0 -78 -13 -173 -45
-310 -27 -117 -33 -212 -15 -248 21 -41 103 -117 125 -117 44 0 63 -113 41
-235 -8 -44 -15 -87 -15 -95 0 -135 -43 -346 -87 -430 -13 -25 -33 -65 -45
-89 -12 -24 -29 -51 -38 -60 -28 -27 -90 -71 -101 -71 -6 0 -11 -4 -11 -8 0
-4 -15 -13 -34 -20 -18 -7 -44 -21 -56 -32 -14 -12 -38 -20 -60 -20 -21 0 -75
-7 -120 -16 -45 -8 -84 -13 -86 -11 -9 9 -23 218 -24 347 0 74 -4 150 -9 168
-6 21 -6 32 0 32 6 0 8 8 5 18 -3 9 -7 90 -8 180 -1 89 -5 162 -8 162 -3 0 -4
49 -3 110 1 64 -2 110 -7 110 -6 0 -10 5 -10 11 0 5 5 7 10 4 6 -3 10 -2 10 4
0 5 -5 13 -10 16 -7 4 -6 13 1 27 6 11 7 18 2 15 -6 -4 -8 35 -6 98 2 58 1
105 -4 105 -4 0 -7 59 -6 132 1 72 -3 140 -8 150 -6 11 -6 18 0 18 6 0 9 72 8
180 -1 99 -4 180 -7 180 -3 0 -6 240 -7 533 -1 292 -5 627 -8 742 -9 369 -10
694 -1 702 8 9 783 11 855 3 l43 -5 -40 -50 c-51 -65 -102 -156 -102 -183 0
-13 14 -48 30 -79 35 -66 37 -90 10 -160 -13 -36 -16 -54 -9 -59 17 -10 52 32
70 83 12 37 22 49 45 56 16 5 49 23 73 39 24 16 45 27 47 25 2 -2 -3 -29 -11
-59 -8 -31 -17 -80 -20 -109 -4 -29 -11 -73 -16 -98 -5 -25 -15 -80 -21 -121
-6 -41 -21 -111 -35 -155 -13 -44 -33 -132 -44 -195 -19 -107 -30 -153 -81
-319 -21 -70 -14 -96 20 -75 23 15 92 283 118 456 2 15 15 64 30 108 14 44 27
95 29 113 4 43 31 196 61 342 29 140 43 213 53 275 4 25 10 51 15 58 4 7 7 68
7 137 -1 119 -3 127 -37 207 -34 81 -77 160 -98 185 -30 34 -36 43 -30 43 4 0
-4 12 -18 28 -14 15 -43 62 -64 105 -21 43 -45 90 -53 104 -19 37 -15 198 6
234 14 24 15 30 3 44 -28 34 -28 57 3 193 40 173 45 200 58 348 15 170 3 324
-35 457 -25 86 -63 164 -91 187 -8 7 -15 18 -15 24 0 7 -17 28 -38 49 l-37 36
-26 -22z m-1509 -124 c6 -16 15 -37 20 -48 5 -11 14 -41 20 -66 5 -25 47 -124
93 -220 46 -96 91 -196 100 -224 42 -129 47 -153 47 -218 l0 -68 -57 -61 c-32
-33 -70 -69 -85 -79 l-27 -20 -17 33 c-10 18 -19 44 -20 57 -2 13 -10 41 -19
63 -8 22 -18 69 -21 104 -3 36 -12 80 -19 97 -7 18 -18 66 -24 107 -6 41 -17
101 -26 133 -10 38 -13 77 -9 112 6 47 4 56 -11 61 -43 17 -58 -73 -30 -176 9
-30 20 -89 26 -130 5 -41 19 -93 29 -116 11 -22 20 -60 20 -85 0 -47 12 -95
68 -274 9 -29 6 -34 -50 -84 -32 -29 -61 -51 -64 -48 -3 2 -14 29 -25 58 -24
65 -44 163 -65 319 -8 63 -19 142 -25 175 -14 90 -15 113 -8 195 9 107 28 190
50 221 10 15 19 34 19 42 0 9 5 19 11 22 6 4 8 13 5 21 -3 8 -2 14 3 14 4 0
20 25 35 55 14 30 31 55 37 55 5 0 14 -12 19 -27z m794 -1066 c4 -260 9 -587
12 -729 5 -255 5 -256 -16 -263 -12 -4 -85 -8 -163 -10 -707 -15 -917 -17
-917 -9 0 6 18 21 40 34 56 34 190 160 190 178 0 8 3 12 7 9 6 -6 22 16 39 53
4 8 15 24 25 35 24 27 57 114 73 191 12 57 12 65 -4 79 -18 16 -39 20 -41 8
-1 -5 -3 -30 -5 -56 -4 -59 -50 -193 -75 -218 -11 -11 -19 -24 -19 -29 0 -6
-34 -46 -76 -90 -72 -75 -102 -97 -91 -67 2 6 -6 32 -18 57 -13 25 -24 54 -26
65 -3 21 35 105 63 139 138 169 166 216 128 216 -10 0 -21 4 -24 9 -6 9 57 65
122 109 49 33 73 64 60 79 -7 9 -18 6 -46 -10 -20 -12 -44 -29 -53 -37 -39
-37 -69 -59 -72 -52 -2 4 -2 31 1 60 4 51 7 55 84 130 45 42 106 103 138 135
31 31 60 57 64 57 4 0 78 70 164 156 85 86 168 161 185 166 22 8 26 13 15 20
-9 7 -8 8 6 4 10 -4 24 -2 30 3 6 4 35 16 64 26 28 9 50 20 48 23 -2 4 15 5
38 4 l43 -4 7 -471z m104 464 c9 -5 37 -19 62 -31 78 -38 222 -170 300 -274
19 -26 48 -59 64 -74 154 -143 210 -177 280 -170 25 3 46 4 46 3 0 -2 -7 -19
-15 -38 -8 -20 -15 -65 -15 -99 l0 -63 -23 25 c-55 63 -150 100 -163 65 -8
-20 11 -35 45 -35 35 0 111 -79 111 -116 0 -37 13 -56 34 -52 12 2 30 -22 67
-91 27 -51 57 -100 65 -109 9 -8 28 -34 42 -56 83 -129 124 -222 130 -293 2
-35 2 -63 -2 -63 -3 0 -50 46 -103 101 -117 121 -161 166 -199 199 -16 14 -37
37 -46 51 -9 14 -23 32 -30 40 -18 18 -57 103 -65 139 -4 22 1 34 19 53 43 43
55 89 25 95 -12 2 -20 -4 -24 -16 -3 -11 -13 -22 -23 -25 -23 -6 -60 -64 -60
-94 0 -61 104 -232 176 -288 44 -34 64 -53 147 -144 31 -34 57 -66 57 -70 0
-4 -195 -12 -432 -16 -536 -11 -516 -11 -522 -4 -4 3 -9 333 -12 732 l-5 727
26 0 c14 0 33 -4 43 -9z m1015 -1528 c13 -4 17 -16 17 -49 0 -52 -15 -57 -51
-18 -18 20 -31 25 -56 22 -18 -2 -33 -2 -33 0 0 2 15 21 33 42 30 36 33 38 52
24 11 -8 28 -17 38 -21z m-1104 1 c2 -1 5 -101 7 -221 3 -212 8 -496 20 -1123
3 -168 5 -360 6 -428 0 -67 3 -120 6 -118 4 2 7 -7 7 -20 0 -13 -2 -24 -5 -24
-5 0 -5 -45 2 -150 1 -19 1 -60 -1 -90 -1 -30 -2 -166 -1 -302 1 -227 2 -246
18 -241 14 5 14 3 -2 -9 -15 -12 -17 -22 -12 -59 8 -52 9 -58 4 -127 -2 -28 0
-52 5 -52 4 0 7 -8 7 -17 0 -16 -2 -16 -11 -3 -8 12 -9 11 -4 -6 3 -12 7 -254
10 -538 l4 -516 -37 -2 c-90 -4 -150 -2 -192 5 -25 4 -67 10 -95 13 -73 8
-140 41 -198 96 -28 27 -72 60 -96 75 -82 48 -134 127 -152 231 -5 31 -14 68
-20 82 -6 14 -15 61 -20 105 -4 44 -11 95 -15 113 -5 25 2 51 30 116 21 49 36
101 36 123 0 80 49 180 82 168 8 -3 20 0 26 7 10 12 8 43 -13 213 -2 17 -10
59 -18 95 -15 65 -33 198 -29 213 1 4 -3 38 -9 75 -7 37 -12 76 -13 87 -11
119 -20 174 -28 169 -5 -3 -6 5 -2 20 3 14 1 54 -5 88 -5 35 -13 86 -16 113
-4 28 -11 79 -16 115 -13 99 -11 203 8 288 17 81 23 278 11 347 -27 148 -36
175 -58 175 -25 0 -29 -17 -13 -68 7 -24 15 -74 18 -111 4 -36 8 -83 10 -104
5 -41 -9 -176 -26 -247 -10 -45 -17 -91 -18 -120 -1 -21 -48 36 -67 83 -9 20
-20 37 -24 37 -5 0 -11 15 -15 33 -12 58 -28 106 -34 103 -3 -2 -7 28 -7 68
-1 39 -9 114 -17 166 -9 52 -16 131 -17 175 -2 107 -14 159 -55 228 -34 56
-35 62 -35 162 0 116 -1 115 87 115 23 0 54 5 69 10 30 12 29 22 8 -101 -5
-29 -3 -37 12 -43 9 -4 22 -2 27 3 16 16 31 111 32 201 0 76 -3 90 -29 135
-34 58 -98 125 -126 130 -29 6 -40 14 -40 31 0 11 17 14 78 14 42 1 111 3 152
5 41 2 162 7 269 10 107 3 196 7 198 9 4 4 337 -5 342 -10z m-1063 -45 c18
-35 8 -42 -52 -37 -36 3 -39 6 -42 35 -3 26 1 32 20 35 38 6 58 -3 74 -33z
m2053 -79 c23 -17 45 -38 48 -48 4 -9 11 -20 16 -24 22 -14 -15 -64 -82 -110
-67 -46 -81 -50 -81 -20 0 9 -7 23 -15 32 -31 34 -28 71 11 138 21 34 43 62
49 62 7 0 31 -14 54 -30z m-1917 -56 c14 -27 29 -69 33 -94 6 -45 6 -46 -27
-58 -19 -6 -67 -12 -106 -12 -68 0 -73 2 -84 25 -6 14 -15 25 -19 25 -4 0 -14
7 -22 14 -21 22 -6 93 24 114 29 21 78 31 100 20 10 -4 24 -1 35 7 27 20 36
15 66 -41z"/>
<path d="M9614 7593 c23 -102 35 -189 36 -261 0 -45 5 -126 11 -180 6 -53 15
-155 19 -227 10 -146 26 -273 40 -325 19 -65 32 -224 34 -395 1 -143 5 -186
26 -274 21 -85 29 -106 48 -114 17 -8 26 -7 38 5 13 13 13 17 1 29 -7 8 -16
26 -19 39 -3 14 -14 52 -23 85 -13 45 -18 107 -20 250 -1 105 -5 197 -9 206
-4 8 -8 40 -10 70 -5 80 -26 217 -42 273 -8 26 -14 92 -15 145 0 53 -5 123
-10 156 -5 33 -14 130 -18 215 -5 85 -11 178 -14 206 -6 68 -33 124 -59 124
-17 0 -19 -5 -14 -27z"/>
<path d="M9553 5453 c-20 -7 -16 -19 27 -82 57 -83 82 -145 85 -212 4 -61 10
-79 26 -79 31 0 27 131 -6 206 -52 119 -67 145 -93 157 -15 8 -33 12 -39 10z"/>
<path d="M9420 5315 c-17 -45 -27 -175 -22 -281 4 -80 1 -114 -13 -158 l-18
-57 23 -24 c27 -29 49 -31 113 -9 38 13 51 14 62 4 8 -7 22 -9 31 -6 27 10 73
-31 79 -72 12 -80 26 -113 43 -110 21 4 29 72 12 93 -7 8 -9 18 -6 23 13 21
-25 117 -151 382 -30 63 -64 135 -75 160 -32 71 -34 75 -52 78 -10 2 -20 -7
-26 -23z m111 -279 c-4 -6 1 -48 12 -94 15 -67 22 -82 35 -79 10 2 16 9 15 15
-2 7 1 12 7 12 11 0 42 -55 34 -63 -8 -7 -44 4 -44 14 0 5 -9 9 -20 9 -27 0
-50 49 -57 119 -3 31 -10 64 -15 74 -10 20 -34 23 -41 5 -8 -19 -8 84 -1 122
7 32 7 31 45 -46 21 -43 35 -83 30 -88z m-40 -148 c18 -37 18 -38 -2 -49 -35
-18 -49 -5 -43 43 3 24 8 50 11 58 5 13 6 13 10 0 3 -8 13 -32 24 -52z"/>
<path d="M1548 10463 c-50 -70 -93 -152 -107 -203 -7 -25 -17 -62 -23 -82 -7
-22 -8 -68 -4 -116 4 -44 9 -102 11 -129 3 -26 9 -75 14 -108 6 -33 15 -109
21 -170 24 -248 31 -312 40 -355 4 -24 7 -119 6 -210 -4 -230 -33 -347 -103
-422 -26 -27 -26 -58 -1 -58 13 0 58 62 58 80 0 5 4 10 8 10 16 0 42 72 58
158 20 110 26 283 12 387 -13 109 -18 152 -28 275 -13 156 -26 272 -34 300
-11 45 -35 288 -29 312 2 13 9 32 14 43 5 11 23 63 39 115 17 52 47 119 66
149 47 70 31 92 -18 24z"/>
<path d="M10826 10343 c-3 -4 -32 -59 -62 -122 -74 -153 -88 -227 -79 -416 8
-170 16 -225 39 -260 16 -24 20 -25 32 -13 13 13 13 22 -1 74 -22 84 -30 302
-15 405 12 83 32 135 90 234 42 71 43 73 36 90 -6 16 -28 20 -40 8z"/>
<path d="M13423 9478 c16 -103 105 -310 177 -412 46 -65 184 -203 241 -240 24
-17 58 -43 76 -60 29 -26 33 -27 39 -12 5 12 -4 28 -27 52 -18 19 -37 34 -41
34 -26 0 -187 166 -246 254 -67 98 -140 249 -158 326 -16 69 -28 90 -51 90
-11 0 -14 -8 -10 -32z"/>
<path d="M6458 9364 c-13 -14 -14 -22 -3 -57 19 -65 -10 -237 -47 -277 -10
-10 -18 -22 -18 -26 0 -4 -28 -38 -62 -75 -136 -146 -233 -260 -233 -276 0
-24 21 -27 42 -5 58 61 122 131 141 156 12 16 45 54 74 85 107 116 142 193
153 337 6 75 4 97 -9 123 -19 36 -17 35 -38 15z"/>
<path d="M8125 8563 c-11 -1 -46 -5 -78 -8 -45 -5 -66 -13 -93 -37 -35 -31
-74 -95 -74 -121 0 -8 -7 -28 -15 -45 -18 -36 -47 -201 -50 -287 -3 -67 -9
-109 -31 -205 -9 -36 -17 -99 -20 -140 -4 -78 -56 -264 -120 -435 -68 -182
-71 -200 -73 -382 -2 -177 14 -299 43 -332 8 -9 35 -61 61 -116 33 -71 45
-109 42 -130 -3 -16 0 -38 5 -48 16 -31 9 -310 -11 -452 -5 -38 -13 -149 -16
-245 -3 -96 -8 -182 -10 -190 -8 -26 -26 -192 -30 -280 -3 -47 -8 -105 -11
-130 -4 -25 -8 -97 -9 -160 -1 -63 -7 -133 -13 -155 -6 -22 -13 -65 -17 -95
-4 -30 -16 -86 -26 -125 -10 -38 -19 -81 -19 -94 0 -29 -83 -197 -141 -286
-21 -33 -43 -70 -48 -82 -6 -12 -30 -48 -55 -81 -55 -72 -156 -275 -156 -313
0 -15 -5 -40 -12 -56 -6 -15 -15 -82 -20 -148 -10 -143 -20 -218 -41 -305 -9
-36 -21 -87 -26 -115 -5 -27 -19 -95 -30 -150 -43 -218 -51 -359 -25 -460 31
-122 69 -403 80 -600 6 -108 17 -146 37 -126 12 12 10 205 -3 341 -11 111 -40
288 -67 405 -15 69 -13 118 12 335 5 38 47 274 70 385 7 39 17 88 20 110 6 33
9 36 15 20 4 -12 15 -27 24 -35 10 -7 30 -41 46 -74 71 -154 122 -254 145
-286 14 -19 79 -87 144 -150 106 -102 125 -126 170 -212 56 -106 85 -221 74
-292 -3 -23 -21 -79 -40 -126 -77 -192 -121 -348 -107 -385 7 -17 39 -20 49
-5 3 5 8 33 12 62 7 65 26 125 92 288 30 75 55 124 62 122 7 -2 36 -9 66 -17
58 -15 248 -19 303 -5 19 4 55 11 80 13 76 9 125 29 125 52 0 16 -6 20 -30 19
-29 -2 -106 -14 -187 -29 l-38 -7 0 83 c-1 46 -3 107 -5 134 -3 53 -15 475
-19 710 -2 128 3 237 19 386 5 44 3 58 -10 69 -27 22 -44 -8 -56 -100 -13 -96
-13 -647 0 -885 10 -180 9 -380 -1 -391 -13 -13 -131 -8 -183 8 -27 9 -54 15
-60 14 -5 0 -11 17 -13 39 -9 122 -31 183 -119 327 -39 64 -79 110 -148 174
-84 77 -94 90 -88 113 14 57 82 182 118 217 12 11 26 27 31 36 11 20 177 193
196 204 18 12 143 201 185 282 36 70 42 116 17 126 -24 9 -41 -9 -47 -54 -3
-21 -22 -67 -43 -100 -22 -34 -54 -87 -73 -118 -19 -31 -84 -106 -144 -167
-134 -135 -212 -230 -257 -315 -19 -36 -36 -67 -38 -70 -5 -7 -22 24 -58 105
-66 148 -96 210 -114 232 -10 12 -23 52 -30 88 -7 35 -18 70 -26 76 -8 6 -14
29 -14 50 0 45 27 178 39 193 5 6 28 49 51 96 24 47 59 107 78 134 43 59 192
307 192 319 0 5 8 21 18 35 33 48 86 253 97 372 3 41 11 93 17 115 10 41 17
147 23 378 2 70 9 152 15 182 6 30 16 116 21 192 19 289 27 382 32 390 8 13
20 199 19 303 0 149 -16 252 -45 304 -22 40 -23 46 -8 46 9 0 22 -5 29 -12 9
-9 12 11 12 93 0 57 5 158 12 225 13 136 6 187 -28 192 -19 3 -21 -2 -20 -75
0 -58 -15 -301 -24 -393 -1 -8 -47 70 -66 110 -13 29 -17 73 -18 240 -1 203
-1 206 27 280 16 41 35 91 42 110 7 19 19 49 26 65 7 17 13 35 15 40 1 6 9 41
18 79 21 90 39 119 32 51 -8 -70 -13 -434 -7 -443 4 -5 13 -11 22 -14 22 -9
26 21 28 207 1 83 4 186 7 231 6 76 -2 117 -26 134 -9 6 12 165 34 265 9 39
16 73 16 76 0 10 191 3 235 -8 37 -10 91 -10 139 -1 14 2 20 -4 23 -27 2 -16
8 -43 13 -60 5 -16 19 -79 30 -140 22 -121 65 -275 118 -430 117 -340 129
-437 81 -630 -6 -27 -18 -62 -25 -77 -8 -15 -14 -36 -14 -46 0 -21 -30 -39
-31 -19 -1 20 -7 59 -18 122 -6 33 -10 119 -10 192 1 84 -5 158 -14 205 -15
68 -34 239 -44 388 -6 94 -20 132 -46 128 -20 -3 -22 -8 -19 -63 2 -33 8 -89
13 -125 6 -36 12 -103 15 -150 3 -47 14 -128 25 -180 14 -67 20 -127 18 -205
-1 -60 2 -172 6 -248 7 -116 11 -141 26 -150 16 -10 16 -13 -2 -59 -21 -54
-18 -168 8 -273 22 -87 43 -215 43 -256 0 -20 9 -61 19 -92 13 -36 20 -84 20
-129 0 -40 5 -89 11 -108 5 -19 10 -66 10 -105 1 -62 7 -127 25 -245 3 -19 10
-80 16 -135 23 -228 29 -272 38 -310 6 -22 11 -58 11 -80 0 -53 25 -169 45
-207 8 -17 15 -46 15 -63 0 -66 103 -275 172 -349 10 -11 30 -42 44 -70 15
-28 45 -78 69 -111 70 -100 99 -163 107 -240 4 -38 11 -95 17 -125 23 -123 24
-150 9 -168 -8 -9 -21 -39 -28 -67 -7 -27 -30 -85 -51 -128 -22 -43 -39 -85
-39 -95 -2 -62 -84 -183 -158 -231 -25 -16 -49 -28 -53 -25 -5 2 -5 42 -2 88
7 95 -1 125 -58 241 -25 51 -62 104 -101 147 -79 83 -245 346 -262 412 -3 14
-15 30 -26 36 -28 15 -52 -22 -39 -59 9 -24 83 -152 101 -176 21 -26 58 -87
58 -94 0 -4 11 -18 25 -31 14 -13 25 -29 25 -35 0 -6 11 -22 25 -35 14 -13 25
-29 25 -35 0 -6 21 -31 46 -55 89 -87 137 -220 122 -336 -6 -42 -5 -71 2 -84
6 -12 7 -20 1 -20 -17 0 -73 -63 -89 -100 -8 -19 -32 -56 -53 -81 -22 -26 -39
-53 -39 -61 0 -7 -9 -30 -20 -51 -67 -125 -61 -261 20 -432 28 -59 87 -215 95
-252 3 -18 16 -44 27 -58 19 -24 21 -25 33 -9 15 21 7 62 -31 161 -14 37 -32
86 -40 108 -8 22 -21 51 -29 66 -35 63 -57 142 -58 212 -1 61 4 84 32 147 17
41 46 92 62 113 17 20 36 52 44 71 15 36 106 136 124 136 22 0 96 62 148 123
48 56 93 145 93 182 0 8 18 51 40 97 22 46 40 90 41 98 3 50 44 -175 59 -320
4 -41 19 -140 35 -220 29 -155 29 -151 6 -480 -5 -74 -12 -184 -16 -245 -3
-60 -8 -132 -11 -160 -4 -47 7 -87 21 -73 9 9 22 120 40 343 8 110 21 239 27
288 14 109 6 225 -26 389 -14 70 -26 149 -27 175 -1 26 -11 95 -21 153 -11 58
-23 155 -27 216 -4 61 -11 116 -14 121 -4 6 -7 35 -8 64 -1 30 -10 80 -20 113
-11 32 -19 70 -19 83 0 23 -73 181 -89 193 -4 3 -39 58 -79 124 -40 65 -79
125 -87 133 -26 26 -103 188 -120 254 -9 35 -23 87 -31 114 -8 28 -20 88 -25
135 -5 47 -16 107 -24 134 -8 27 -15 69 -15 93 0 24 -6 87 -14 141 -7 53 -14
106 -14 117 0 25 -30 315 -42 415 -6 41 -12 113 -16 160 -3 47 -11 103 -19
125 -7 23 -16 68 -19 100 -6 73 -21 150 -36 190 -6 16 -15 77 -20 134 l-10
105 44 86 c24 47 47 101 51 120 4 19 13 49 20 65 42 97 66 274 47 347 -6 24
-18 75 -27 113 -9 39 -38 135 -65 215 -95 288 -108 337 -125 445 -9 61 -23
132 -31 159 -8 26 -14 61 -14 76 0 16 -7 36 -16 45 -15 14 -15 20 -1 63 29 90
40 171 34 255 -9 115 -21 149 -75 207 -45 49 -85 68 -127 63z m81 -81 c44 -35
58 -80 62 -200 6 -151 -14 -226 -67 -261 -34 -23 -39 -23 -91 -11 -30 8 -86
14 -124 14 -67 1 -70 2 -82 31 -20 46 4 190 53 315 42 110 67 129 163 129 47
1 71 -4 86 -17z"/>
<path d="M18957 8503 c-19 -18 -5 -82 29 -136 19 -31 39 -57 42 -57 4 0 17
-26 28 -57 82 -225 92 -277 75 -383 -10 -60 -11 -84 -2 -93 18 -18 32 4 50 85
15 63 15 84 5 153 -6 44 -23 110 -38 147 -14 37 -28 79 -30 94 -3 15 -10 30
-15 33 -5 4 -12 18 -16 32 -3 14 -17 37 -29 50 -31 34 -46 63 -46 91 0 36 -33
61 -53 41z"/>
<path d="M1152 8073 c-5 -10 -12 -43 -16 -74 -6 -56 -30 -139 -44 -149 -4 -3
-20 -31 -36 -62 -15 -32 -37 -67 -47 -79 -19 -22 -39 -79 -39 -112 0 -38 33
-148 44 -144 12 4 10 59 -4 106 -11 40 -1 78 34 129 17 24 34 49 37 56 12 23
33 62 55 101 12 22 30 76 39 120 10 44 20 90 22 103 4 17 1 22 -15 22 -12 0
-25 -8 -30 -17z"/>
<path d="M7977 7862 c-17 -19 -19 -33 -57 -333 -19 -142 -20 -175 -9 -230 16
-85 19 -178 23 -594 2 -192 8 -381 13 -420 12 -89 9 -461 -5 -630 -7 -71 -14
-182 -17 -245 -3 -63 -8 -169 -11 -236 -7 -128 -3 -141 36 -129 19 6 21 14 19
88 -1 45 1 107 5 137 3 30 8 118 11 195 3 77 10 185 14 240 13 153 13 522 0
606 -12 74 -18 355 -10 459 6 80 -7 402 -21 490 -8 58 -8 102 2 185 7 61 15
155 20 211 4 56 10 106 13 112 4 5 22 10 40 9 66 -2 91 -77 101 -307 4 -80 13
-194 21 -255 24 -183 27 -252 30 -725 1 -250 8 -525 15 -610 14 -184 19 -880
7 -1100 -5 -85 -10 -206 -12 -267 -2 -62 -9 -164 -15 -228 -9 -92 -9 -120 2
-142 7 -14 18 -28 25 -30 15 -5 20 18 28 122 3 44 7 94 10 110 2 17 7 129 10
250 3 121 9 272 12 335 11 175 2 783 -13 965 -11 126 -13 212 -18 605 -6 439
-11 572 -27 695 -5 44 -12 121 -14 170 -11 198 -14 243 -26 313 -7 41 -17 79
-24 86 -7 6 -17 21 -23 33 -9 16 -120 83 -137 83 -1 0 -9 -8 -18 -18z"/>
<path d="M10370 7615 c-15 -19 -16 -100 -1 -166 11 -47 5 -250 -8 -309 -4 -20
-5 -60 -1 -90 5 -32 2 -118 -7 -205 -8 -82 -18 -199 -22 -260 -5 -65 -18 -136
-30 -175 -12 -36 -26 -96 -31 -135 -25 -192 -29 -227 -33 -316 -5 -101 1 -126
27 -116 13 5 16 23 16 99 0 51 7 131 16 178 8 47 19 117 25 155 5 39 18 97 28
130 24 75 35 133 37 210 0 33 6 121 13 195 12 145 26 470 24 560 -6 219 -20
285 -53 245z"/>
<path d="M13922 7118 c-16 -16 -15 -65 2 -132 8 -30 16 -106 17 -168 3 -122
-2 -140 -52 -193 -15 -16 -35 -52 -44 -79 -15 -43 -15 -50 -2 -64 23 -22 44
-9 51 32 4 20 20 51 35 69 59 67 71 103 71 213 0 84 -15 215 -36 312 -5 24
-23 29 -42 10z"/>
<path d="M6136 6982 c-3 -5 2 -37 10 -73 12 -49 13 -95 8 -200 -5 -112 -4
-144 10 -185 18 -55 69 -124 92 -124 20 0 18 9 -17 85 l-32 67 7 121 c7 124
-4 243 -25 291 -12 25 -42 35 -53 18z"/>
<path d="M10404 5482 c-6 -4 -38 -57 -71 -119 -88 -163 -109 -265 -71 -349 16
-34 54 -30 50 6 -2 14 -6 44 -9 68 -7 57 9 117 60 223 29 63 48 90 63 93 23 6
38 44 28 70 -6 17 -31 21 -50 8z"/>
<path d="M10603 5374 c-20 -8 -71 -105 -79 -149 -8 -45 -22 -80 -87 -215 -51
-108 -70 -206 -60 -320 7 -77 17 -94 45 -79 17 9 19 18 14 72 -8 80 7 195 31
249 11 24 27 59 36 78 l16 35 0 -33 c1 -18 -8 -45 -18 -60 -28 -38 -31 -67 -7
-67 10 0 22 -10 27 -22 7 -19 2 -25 -29 -40 -30 -15 -37 -23 -37 -48 0 -34 31
-48 50 -21 26 35 105 47 139 21 26 -20 49 -19 69 3 14 15 16 34 13 95 -2 42
-9 97 -15 124 -5 26 -22 101 -37 165 -14 64 -27 139 -28 165 -1 48 -12 59 -43
47z m41 -326 c4 -20 2 -39 -3 -42 -15 -9 -51 34 -51 61 0 16 -6 23 -20 23 -25
0 -25 -4 2 87 l22 75 22 -83 c12 -46 24 -101 28 -121z m23 -165 l0 -62 -24 16
c-21 14 -22 18 -9 25 11 6 16 24 16 61 1 34 4 47 9 37 5 -8 8 -43 8 -77z"/>
<path d="M17918 5233 c-26 -30 -39 -108 -77 -448 -7 -59 -7 -107 0 -140 9 -48
6 -136 -6 -155 -3 -6 -19 -67 -35 -137 -15 -71 -36 -157 -45 -193 -9 -36 -20
-81 -25 -100 -4 -19 -16 -61 -25 -93 -18 -65 -18 -64 -45 -207 -11 -58 -26
-125 -33 -150 -8 -25 -12 -51 -9 -59 2 -8 0 -11 -6 -7 -20 12 -41 -176 -28
-254 11 -63 14 -223 5 -285 -5 -38 -5 -62 2 -66 6 -3 7 -18 3 -33 -3 -15 -1
-32 5 -40 16 -19 3 -64 -20 -71 -20 -7 -27 -35 -9 -35 6 0 10 -4 10 -10 0 -5
-7 -10 -15 -10 -11 0 -12 -5 -5 -26 13 -32 12 -35 -2 -32 -24 6 -38 -87 -43
-282 -3 -107 -8 -212 -10 -233 -6 -42 18 -97 58 -134 48 -45 62 -89 59 -193
-5 -150 -5 -164 -3 -186 0 -11 9 -29 19 -40 38 -41 72 -92 72 -107 0 -8 4 -17
8 -19 4 -1 18 -17 30 -34 21 -31 34 -135 18 -151 -3 -4 -20 -8 -37 -9 -17 -1
-37 -8 -45 -14 -11 -10 -14 -9 -14 2 0 14 50 64 61 61 3 -1 5 8 4 20 -2 30
-29 33 -57 7 -30 -29 -61 -40 -109 -40 -38 0 -46 9 -40 43 6 36 8 74 4 85 -7
18 -40 15 -52 -5 -9 -16 -10 -14 -11 8 0 28 -26 47 -42 31 -5 -5 -12 -44 -15
-86 -5 -60 -9 -76 -22 -77 -9 0 -51 -2 -93 -4 -43 -2 -78 0 -78 5 0 13 28 98
45 135 7 17 16 41 20 55 4 14 17 33 28 43 11 9 16 17 11 17 -5 0 -1 5 8 10 14
8 15 16 7 46 -6 19 -12 61 -14 92 -2 31 -9 86 -15 122 -6 36 -9 79 -6 95 9 50
16 115 25 230 5 61 12 119 16 130 6 17 5 18 -5 5 -10 -13 -11 -12 -4 5 16 44
27 179 15 197 -6 10 -11 21 -11 25 0 5 5 1 10 -7 6 -9 10 -10 10 -3 0 6 -5 15
-10 18 -6 3 -7 18 -4 32 5 18 3 24 -5 19 -6 -4 -11 -1 -11 8 0 9 6 16 13 16 8
0 9 2 1 8 -13 8 -21 63 -39 288 -3 39 -9 75 -21 139 -38 207 -43 271 -34 415
6 80 15 168 20 195 10 51 15 90 26 208 4 37 11 67 16 67 5 0 7 8 3 19 -3 10
-8 36 -10 57 -3 22 -8 53 -12 69 -3 17 -5 44 -4 62 1 17 -3 34 -8 37 -5 3 -9
31 -10 62 0 31 -5 62 -12 70 -6 8 -9 14 -6 14 3 0 1 15 -4 33 -6 17 -12 39
-13 47 -9 59 -63 181 -87 195 -5 4 -9 13 -9 21 0 18 -52 90 -82 113 -13 9 -53
35 -89 56 -37 22 -73 49 -80 61 -8 12 -33 50 -56 84 -24 34 -43 64 -43 67 0 3
-9 15 -21 27 -11 12 -35 44 -53 71 -42 64 -72 68 -98 13 -10 -21 -21 -55 -24
-75 -17 -115 -58 -199 -125 -258 -55 -49 -200 -311 -250 -455 -41 -115 -68
-399 -49 -508 6 -37 14 -83 16 -102 4 -35 10 -61 44 -175 25 -84 31 -110 36
-179 2 -34 8 -74 12 -89 4 -14 4 -82 1 -149 -5 -117 -19 -182 -55 -269 -14
-33 -14 -49 6 -185 31 -219 35 -320 16 -457 -18 -124 -15 -166 15 -233 22 -49
19 -129 -8 -212 l-18 -53 29 -77 c15 -42 39 -106 52 -142 20 -53 23 -79 20
-140 -5 -84 -14 -119 -27 -99 -9 15 -82 14 -87 -1 -2 -6 -8 -8 -13 -4 -5 3 -9
0 -9 -5 0 -6 -4 -11 -8 -11 -4 0 -9 17 -10 38 -4 84 -15 131 -31 146 -16 15
-19 15 -31 1 -9 -11 -11 -37 -5 -96 7 -88 3 -99 -44 -99 -23 0 -24 2 -18 60 3
33 2 58 -2 56 -4 -3 -5 9 -3 26 3 19 0 33 -9 39 -25 15 -37 -10 -37 -83 0 -38
-5 -75 -10 -80 -12 -12 -72 -1 -72 13 0 6 -9 5 -21 -2 -21 -11 -21 -10 -15 67
4 44 12 95 18 114 26 83 42 121 55 132 28 23 35 64 39 222 1 88 7 171 13 185
5 14 12 60 14 102 3 42 9 84 14 95 6 10 9 27 7 38 -1 10 2 30 7 43 12 32 17
236 8 322 -4 36 -11 95 -14 131 -4 36 -11 70 -15 75 -4 6 -17 39 -28 75 -32
99 -49 145 -83 218 -18 37 -37 94 -45 127 -7 33 -15 71 -19 85 -17 71 -22 123
-20 205 1 50 0 122 -4 161 l-6 71 27 -8 c32 -9 35 -5 54 64 26 99 10 335 -30
429 -9 21 -16 51 -16 69 0 32 -22 80 -52 110 -9 10 -24 32 -33 48 -18 35 -40
40 -55 12 -12 -24 1 -63 28 -83 71 -49 138 -429 102 -579 l-13 -54 -12 30 c-7
17 -23 64 -35 105 -12 41 -42 125 -66 187 -24 62 -44 116 -44 120 0 4 -7 21
-15 37 -29 54 -65 201 -81 321 -8 66 -17 138 -20 160 -5 41 -34 142 -59 205
-42 109 -65 178 -65 196 0 31 -24 48 -39 30 -14 -17 -10 -39 55 -241 50 -155
60 -197 74 -328 15 -132 20 -158 36 -209 8 -25 17 -58 20 -74 3 -15 10 -36 15
-46 35 -65 157 -419 165 -480 7 -51 12 -167 13 -299 1 -68 8 -124 25 -190 34
-128 40 -149 64 -194 11 -22 41 -103 67 -180 35 -105 50 -168 60 -254 16 -144
15 -352 -2 -373 -7 -8 -10 -17 -7 -20 3 -4 -7 -64 -22 -135 -23 -106 -28 -155
-29 -283 -1 -162 0 -157 -54 -260 -11 -19 -26 -71 -36 -115 -9 -44 -21 -96
-26 -116 -30 -118 21 -264 85 -244 60 18 165 34 224 34 37 -1 76 1 87 4 11 3
40 10 64 17 24 6 50 9 57 6 8 -3 16 0 18 7 2 6 11 35 20 62 9 28 17 79 18 115
0 36 4 74 8 85 9 25 -18 113 -64 208 -39 82 -44 116 -21 150 30 46 24 215 -8
249 -17 18 -21 106 -8 170 25 128 17 341 -21 571 -8 50 -8 73 0 90 43 84 52
131 54 302 2 94 0 193 -4 220 -13 87 -26 151 -41 191 -18 48 -42 152 -58 259
-15 94 -15 96 -6 200 20 229 30 269 113 440 89 182 111 217 207 320 45 49 93
145 102 207 4 26 13 49 20 52 14 5 66 -59 124 -151 18 -29 36 -53 40 -53 4 0
14 -11 21 -25 8 -14 30 -35 49 -47 20 -12 38 -25 41 -28 3 -3 20 -12 38 -19
17 -8 32 -17 32 -22 0 -5 6 -9 13 -9 22 -1 126 -185 146 -260 7 -25 21 -72 32
-105 18 -54 26 -133 18 -160 -2 -5 3 -52 10 -103 15 -100 7 -297 -15 -392 -15
-62 -23 -404 -11 -450 4 -14 11 -47 15 -75 5 -27 14 -72 21 -100 24 -103 30
-143 41 -255 6 -63 15 -137 20 -165 14 -75 17 -155 9 -202 -5 -24 -11 -69 -14
-100 -8 -80 -24 -237 -31 -303 -12 -110 -11 -147 3 -229 18 -108 11 -165 -37
-266 -50 -109 -59 -138 -68 -232 -9 -89 -2 -123 24 -123 10 0 25 -7 33 -14 13
-12 26 -13 61 -5 24 6 72 7 105 4 64 -7 207 17 213 35 2 5 14 10 27 10 49 0
146 59 172 104 20 34 16 143 -6 174 -10 15 -25 43 -34 63 -8 19 -29 52 -46 72
-40 45 -51 82 -40 138 12 62 11 167 -2 214 -6 22 -31 65 -56 96 l-44 57 1 219
c1 223 5 310 15 351 4 15 2 21 -5 17 -5 -3 -10 -2 -10 3 0 6 7 13 16 16 12 5
15 14 10 37 -3 17 -2 28 4 24 11 -7 24 77 17 106 -3 11 1 51 8 87 20 97 25
250 11 318 -6 33 -11 64 -11 69 8 77 19 138 31 160 8 15 14 33 14 40 0 6 6 25
14 41 8 16 25 81 37 144 12 63 28 138 35 165 7 28 20 77 28 111 9 33 16 71 16
85 0 14 4 29 9 34 10 11 32 101 55 220 9 44 22 103 29 130 10 37 11 76 5 150
-4 55 -5 114 -1 130 3 17 7 48 8 70 8 127 36 296 56 334 11 23 19 48 15 56 -7
20 -39 19 -58 -2z m-523 -3968 c83 2 159 5 169 7 10 1 21 -2 23 -8 4 -11 -36
-33 -77 -41 -39 -8 -171 -9 -176 -2 -2 4 -24 3 -50 -2 -56 -11 -64 -7 -64 33
0 23 3 28 13 20 7 -6 72 -8 162 -7z"/>
<path d="M4602 4948 c-6 -6 -12 -31 -12 -54 0 -23 -7 -64 -14 -90 -8 -27 -22
-85 -31 -129 -9 -44 -23 -110 -31 -147 -8 -37 -17 -88 -20 -115 -3 -26 -17
-84 -31 -127 -22 -68 -25 -91 -20 -163 4 -71 0 -103 -23 -196 -31 -125 -75
-267 -114 -371 -37 -97 -34 -158 10 -271 85 -218 103 -289 92 -365 -17 -115
-41 -186 -94 -275 -75 -127 -95 -205 -84 -332 5 -54 14 -120 20 -148 13 -59
14 -197 1 -275 -8 -47 -6 -65 15 -126 35 -102 33 -183 -6 -243 -48 -75 -60
-115 -54 -165 4 -25 15 -53 25 -62 11 -10 40 -61 65 -113 46 -95 56 -147 31
-163 -21 -13 -158 -2 -168 13 -5 8 -8 40 -8 71 2 66 -12 91 -44 79 -23 -9 -41
-53 -52 -129 -8 -60 -41 -95 -84 -90 -23 3 -26 8 -27 48 -1 25 -7 80 -14 123
-15 102 -7 154 29 175 56 32 82 143 54 223 -21 59 -21 107 0 148 9 19 17 43
17 53 0 11 5 29 11 40 7 12 13 94 16 191 2 93 8 178 13 188 12 21 15 291 5
334 -4 17 -34 86 -67 154 l-60 123 6 82 c3 44 8 122 11 171 3 50 10 106 15
125 5 19 12 55 14 80 3 25 12 95 21 155 9 61 13 126 9 145 -4 19 -10 78 -14
130 -13 156 -39 339 -59 414 -11 39 -27 116 -36 171 -22 135 -38 186 -86 282
-64 127 -108 174 -187 201 -84 28 -150 29 -186 1 -25 -20 -78 -90 -103 -136
-6 -12 -18 -35 -26 -50 -42 -79 -79 -208 -88 -306 -5 -56 -13 -118 -19 -137
-5 -19 -10 -56 -10 -82 0 -26 -11 -83 -25 -128 -15 -44 -24 -84 -21 -88 3 -5
-1 -33 -9 -63 -8 -30 -17 -74 -21 -99 -3 -25 -10 -63 -15 -85 -13 -62 -11
-129 7 -171 25 -58 72 -225 78 -276 6 -44 -10 -120 -39 -193 -14 -33 -38 -98
-55 -145 -17 -47 -42 -105 -56 -129 -21 -39 -23 -49 -13 -73 13 -31 7 -238 -8
-261 -4 -6 -12 -82 -18 -167 -11 -143 -10 -159 7 -210 11 -30 21 -62 23 -72 2
-9 10 -29 18 -45 8 -15 25 -66 37 -111 22 -81 22 -86 6 -143 -23 -84 -19 -143
13 -169 22 -18 84 -105 97 -135 8 -20 17 -63 19 -95 l4 -59 -47 -29 c-36 -23
-64 -31 -119 -36 -43 -4 -74 -3 -77 3 -4 5 -2 12 2 15 11 6 16 164 6 189 -7
20 -34 23 -34 3 0 -7 -7 -19 -15 -26 -25 -21 -44 -103 -35 -146 11 -47 2 -54
-53 -42 -23 6 -54 11 -70 11 -25 2 -27 5 -24 37 5 46 42 148 65 180 34 48 45
88 39 151 -3 33 -10 66 -16 73 -6 7 -26 42 -44 78 -25 49 -33 76 -31 109 3 68
27 169 66 279 38 106 39 259 3 435 -8 39 -17 88 -19 110 -2 22 -9 52 -14 65
-27 71 -69 231 -76 293 -3 23 -12 75 -19 115 -10 53 -12 98 -6 161 7 75 14
100 51 172 45 87 69 163 68 214 0 17 1 50 2 73 2 24 0 46 -4 49 -5 2 -8 14 -8
26 0 12 -6 39 -14 62 -8 22 -30 94 -51 160 -20 66 -43 136 -50 155 -8 19 -35
107 -60 195 -26 88 -57 187 -70 220 -41 110 -54 167 -70 310 -3 29 -28 169
-31 173 -1 2 -12 1 -23 -3 -23 -7 -28 -41 -12 -91 5 -16 14 -74 21 -129 7 -55
18 -113 25 -130 6 -16 15 -48 19 -70 4 -22 11 -44 15 -50 5 -5 30 -82 56 -170
26 -88 76 -250 111 -360 96 -307 96 -308 91 -403 -5 -73 -11 -96 -47 -171 -88
-180 -95 -232 -60 -446 21 -128 36 -195 70 -315 12 -41 22 -88 22 -105 0 -16
8 -57 18 -90 11 -33 21 -98 24 -145 2 -47 7 -108 11 -135 6 -41 2 -65 -19
-126 -49 -142 -87 -308 -81 -356 3 -26 23 -76 49 -122 67 -117 67 -127 4 -251
-72 -142 -84 -193 -64 -262 22 -76 60 -113 122 -121 27 -4 74 -3 104 2 58 9
94 7 175 -10 47 -10 54 -9 112 20 75 38 78 48 68 205 -9 134 -27 186 -97 275
l-51 65 11 60 c7 34 14 74 18 91 7 35 -14 112 -67 251 -37 96 -39 108 -39 212
0 60 7 148 15 196 8 48 19 153 23 234 8 136 12 154 46 242 20 52 41 104 46
115 19 39 40 114 54 185 14 77 10 123 -23 220 -10 30 -24 75 -31 100 -8 25
-18 50 -23 57 -8 11 3 157 19 238 18 97 44 218 57 275 18 75 48 268 54 354 2
33 11 76 20 95 8 20 23 62 33 93 29 89 87 185 130 213 43 29 142 14 189 -28
47 -44 105 -154 149 -282 6 -16 16 -66 22 -110 7 -44 23 -122 36 -172 14 -51
29 -135 34 -185 5 -51 13 -115 18 -143 10 -50 14 -130 16 -305 1 -100 -20
-278 -34 -295 -5 -6 -9 -45 -9 -87 0 -42 -5 -96 -12 -120 -15 -57 -14 -158 3
-205 7 -21 34 -78 61 -128 29 -55 50 -111 56 -145 9 -65 4 -237 -9 -296 -5
-22 -12 -114 -15 -204 -6 -150 -9 -171 -36 -240 -32 -83 -35 -125 -14 -185 29
-80 15 -149 -36 -179 -16 -9 -34 -26 -40 -38 -11 -21 -15 -103 -11 -243 2 -44
2 -89 0 -100 -3 -27 22 -75 39 -75 8 0 24 -11 37 -25 32 -35 63 -43 126 -34
171 24 229 30 260 25 41 -6 58 5 84 56 37 74 10 259 -42 283 -12 5 -24 23 -28
40 -4 16 -14 41 -24 55 -26 38 -41 89 -33 118 3 14 22 52 40 83 31 52 35 65
35 136 0 54 -6 99 -22 147 -23 72 -22 91 4 206 12 51 13 81 5 140 -6 41 -14
84 -19 95 -22 52 -40 122 -40 155 0 49 31 142 67 204 57 98 81 147 89 184 4
20 8 39 9 42 14 52 26 163 21 199 -3 25 -22 91 -42 146 -101 282 -100 273 -47
419 38 105 56 165 98 327 25 98 29 137 26 244 -1 38 6 83 19 125 12 36 25 92
30 125 17 118 70 378 85 426 29 86 8 168 -33 127z m-1362 -3951 c0 -27 -24
-58 -58 -76 -18 -10 -31 -10 -55 -1 -18 6 -94 13 -170 15 -75 2 -142 7 -147
10 -23 15 3 22 47 13 57 -10 173 -1 189 15 4 4 23 7 43 7 20 1 59 9 86 19 66
24 65 24 65 -2z m875 -77 c18 -20 17 -20 -28 -20 -52 0 -61 13 -19 28 15 6 27
11 28 11 0 1 9 -8 19 -19z"/>
<path d="M7955 4721 c-18 -31 -23 -170 -9 -269 8 -56 14 -108 13 -115 -2 -6 1
-53 5 -104 9 -100 21 -118 57 -82 19 19 21 28 14 78 -4 31 -9 85 -11 121 -2
36 -8 97 -14 135 -6 39 -10 93 -10 120 1 87 -24 150 -45 116z"/>
<path d="M15979 4538 c-16 -30 -13 -189 5 -298 8 -47 20 -121 25 -165 6 -44
15 -102 21 -130 6 -27 17 -99 25 -160 23 -188 44 -245 91 -245 23 0 26 3 21
28 -3 15 -15 53 -26 85 -11 32 -20 62 -19 65 1 4 -2 18 -5 32 -4 14 -9 59 -11
100 -3 41 -12 101 -21 134 -8 32 -20 100 -25 151 -5 51 -14 105 -20 120 -6 15
-12 89 -13 164 -3 115 -6 136 -20 139 -8 2 -21 -7 -28 -20z"/>
<path d="M17376 4545 c-10 -10 -14 -25 -11 -36 17 -52 21 -437 7 -564 -6 -49
-11 -115 -11 -145 -1 -30 -3 -68 -6 -85 -2 -16 -8 -65 -11 -107 -6 -74 -6 -78
13 -78 13 0 24 10 31 28 10 25 30 188 37 301 2 25 8 100 13 166 17 201 0 492
-31 523 -12 11 -17 11 -31 -3z"/>
<path d="M17619 4509 c-29 -29 -47 -76 -64 -168 -31 -160 -34 -217 -17 -284 9
-39 15 -109 16 -190 0 -116 2 -128 19 -133 35 -11 46 15 51 124 4 106 -3 159
-21 155 -18 -4 -33 102 -23 160 5 28 14 84 20 122 14 90 29 133 57 168 13 16
23 37 23 48 0 26 -34 25 -61 -2z"/>
<path d="M12398 4008 c-46 -10 -74 -30 -125 -91 l-22 -26 -158 5 c-196 6 -229
6 -274 -6 -47 -13 -208 -19 -215 -8 -22 36 -208 108 -277 108 -43 0 -53 -4
-80 -34 -60 -64 -77 -95 -103 -182 -23 -80 -36 -109 -55 -124 -10 -8 -126
-231 -134 -259 -4 -13 -20 -45 -35 -72 -47 -79 -74 -190 -73 -296 2 -107 14
-153 55 -206 21 -26 32 -54 38 -94 8 -60 6 -71 -29 -163 -26 -69 -26 -100 0
-203 27 -103 44 -137 69 -137 11 0 20 -6 20 -13 0 -14 52 -57 69 -57 29 0 134
-109 163 -169 12 -25 37 -64 55 -86 20 -24 36 -55 40 -80 5 -32 18 -51 69
-100 93 -89 191 -175 198 -175 4 0 22 -11 39 -24 115 -87 319 -70 556 47 46
23 89 42 96 43 37 5 211 182 268 273 26 41 47 78 47 83 0 19 74 120 96 130 13
6 24 15 24 19 0 4 11 10 25 13 32 8 141 120 166 171 29 58 25 229 -7 341 -20
71 -22 90 -13 140 44 254 49 372 24 515 -18 108 -38 163 -71 202 -24 29 -66
111 -159 312 -36 77 -88 142 -148 186 -42 30 -62 33 -139 17z m123 -82 c44
-37 109 -124 109 -144 0 -7 20 -55 44 -105 24 -51 51 -108 59 -127 8 -19 24
-44 35 -56 31 -33 61 -97 78 -171 20 -83 26 -258 13 -333 -5 -30 -12 -82 -15
-115 -4 -33 -11 -69 -17 -80 -16 -30 -10 -84 18 -168 39 -114 37 -307 -3 -307
-16 0 -62 38 -62 51 0 12 -92 109 -115 122 -30 16 -103 29 -160 29 -147 -1
-208 -5 -291 -23 -77 -17 -115 -19 -245 -13 -162 6 -174 6 -444 6 -93 -1 -196
0 -227 1 -46 2 -61 -2 -80 -20 -14 -13 -30 -23 -36 -23 -17 0 -118 -113 -128
-143 -16 -49 -65 16 -85 113 -17 79 -12 119 18 162 24 36 25 42 19 121 -4 45
-9 91 -11 102 -2 11 -4 23 -4 26 -1 3 -15 27 -33 54 -29 44 -33 57 -36 140 -3
67 0 108 13 151 20 71 186 412 220 452 13 16 36 62 50 103 35 100 45 118 83
160 26 29 39 36 65 33 47 -3 116 -36 166 -78 l44 -37 111 7 c61 3 129 11 151
16 58 16 326 10 375 -7 54 -19 74 -10 146 63 81 83 115 90 175 38z m69 -1477
c60 -12 102 -48 174 -149 l35 -49 -25 -31 c-15 -17 -50 -42 -80 -57 -67 -32
-80 -48 -136 -153 -46 -86 -84 -147 -109 -173 -137 -144 -140 -146 -273 -211
-129 -64 -224 -93 -316 -97 -44 -3 -205 30 -196 39 8 7 -37 40 -49 36 -6 -3
-28 12 -48 33 -21 21 -64 61 -97 88 -32 28 -62 61 -66 75 -10 36 -52 117 -64
125 -6 3 -19 23 -30 43 -63 116 -82 141 -137 187 -34 28 -64 56 -67 64 -7 15
35 92 71 131 13 14 23 28 23 32 0 4 10 10 22 14 13 4 34 15 48 26 23 16 33 18
71 9 36 -8 259 -8 409 2 14 0 54 -3 90 -7 90 -11 289 -13 325 -3 17 4 48 10
70 13 22 4 58 9 80 13 73 11 219 11 275 0z"/>
<path d="M11316 3739 c-72 -62 -101 -170 -49 -177 19 -3 28 8 55 65 38 79 62
90 103 49 17 -18 25 -36 26 -63 0 -21 4 -46 7 -56 7 -16 8 -16 22 0 49 59 -12
192 -96 209 -26 5 -38 0 -68 -27z"/>
<path d="M12386 3737 c-52 -68 -53 -192 -1 -192 17 0 21 9 26 63 4 45 12 70
26 84 19 19 22 19 53 3 17 -9 39 -30 48 -46 33 -59 39 -65 58 -53 28 16 27 55
-1 88 -14 16 -25 32 -25 36 0 13 -92 50 -125 50 -27 0 -39 -7 -59 -33z"/>
<path d="M11226 3451 c-3 -5 -3 -16 0 -25 4 -10 -2 -17 -19 -21 -50 -13 -54
-22 -100 -240 -13 -64 -15 -198 -2 -250 2 -11 14 -26 26 -33 18 -12 24 -12 36
0 11 11 11 21 3 42 -5 15 -7 51 -4 81 l7 54 38 -25 c21 -13 47 -24 58 -24 18
0 20 -7 18 -87 -2 -75 0 -88 15 -91 9 -2 24 8 33 22 14 21 17 53 17 188 0 181
-16 288 -55 365 -23 46 -57 68 -71 44z m-1 -137 c-9 -15 -12 -23 -5 -19 8 5
10 2 6 -11 -3 -11 -7 -38 -8 -61 -4 -63 -23 -46 -23 20 0 40 6 61 19 76 26 29
32 26 11 -5z"/>
<path d="M12473 3448 c-35 -44 -47 -216 -25 -348 7 -41 17 -113 23 -160 11
-88 28 -130 55 -130 23 0 28 26 14 75 -7 24 -13 66 -14 92 -2 26 -6 60 -10 75
-5 16 -5 36 -1 45 6 14 10 9 19 -22 16 -53 55 -75 93 -50 32 21 43 9 43 -50 0
-22 3 -50 6 -62 12 -45 78 -15 68 30 -3 12 -7 35 -10 50 -12 85 -76 281 -95
293 -5 3 -20 29 -34 59 -42 88 -105 137 -132 103z"/>
<path d="M11905 2182 c-2 -2 -30 -5 -62 -7 -32 -1 -95 -6 -140 -10 -72 -7 -83
-11 -83 -27 0 -36 20 -37 284 -15 99 8 185 13 190 11 6 -2 18 1 26 6 12 7 13
13 4 27 -10 15 -27 18 -113 18 -57 0 -104 -2 -106 -3z"/>
</g>

<g font-family="Tahoma, Verdana, sans-serif" font-size="34" font-weight="600" fill="#333">
  <text x="395" y="620" text-anchor="middle">Lado direito</text>
  <text x="1575" y="620" text-anchor="middle">Lado esquerdo</text>
  <g font-size="29">
    <text x="1128" y="450">Linha</text>
    <text x="1128" y="485">superior</text>
    <text x="1128" y="520">dos olhos</text>
  </g>
  <text x="225" y="1000" text-anchor="middle">Esquerdo</text>
  <text x="585" y="1000" text-anchor="middle">Direito</text>
  <text x="400" y="1300" text-anchor="middle">Membros anteriores</text>
  <text x="400" y="1340" text-anchor="middle">Vista posterior</text>
  <text x="830" y="1255" text-anchor="middle">Pescoço vista</text>
  <text x="830" y="1295" text-anchor="middle">inferior</text>
  <text x="1190" y="1230" text-anchor="middle">Focinho</text>
  <text x="1395" y="1020" text-anchor="middle">Esquerdo</text>
  <text x="1855" y="1020" text-anchor="middle">Direito</text>
  <text x="1640" y="1300" text-anchor="middle">Membros posteriores</text>
  <text x="1640" y="1340" text-anchor="middle">Vista posterior</text>
</g>
</svg>